<?xml version="1.0" encoding="UTF-8" standalone="no"?>
<!DOCTYPE svg PUBLIC "-//W3C//DTD SVG 1.1//EN" "http://www.w3.org/Graphics/SVG/1.1/DTD/svg11.dtd">
<svg width="100%" height="100%" viewBox="0 0 551 40" version="1.1" xmlns="http://www.w3.org/2000/svg" xmlns:xlink="http://www.w3.org/1999/xlink" xml:space="preserve" xmlns:serif="http://www.serif.com/" style="fill-rule:evenodd;clip-rule:evenodd;stroke-linejoin:round;stroke-miterlimit:2;">
    <g transform="matrix(1,0,0,1,-7422.12,-3802.42)">
        <g transform="matrix(33.9797,0,0,1.99289,-34679.8,3426.43)">
            <g id="Cloud-Small" serif:id="Cloud Small" transform="matrix(0.0294293,0,0,0.501784,1018.23,-1719.33)">
                <path d="M7641.99,3836.74C7638.94,3836.63 7634.8,3835.32 7641.5,3834C7655.36,3831.26 7682.49,3827.07 7703.61,3826.42C7729.4,3824.22 7753.78,3827.06 7784,3822.91C7798.28,3823.59 7741.19,3831.1 7741.19,3831.1C7741.19,3831.1 7827.71,3828.93 7863.78,3826.76C7837.7,3831.59 7735.11,3840.07 7641.99,3836.74ZM7629.66,3832.11C7617.11,3835.65 7575.12,3830.05 7524.92,3818.86C7527.68,3819.25 7572.06,3825.11 7607.04,3825.95C7630.83,3826.52 7648.49,3822.14 7652.69,3822.35C7684.58,3817.47 7638.88,3830.47 7629.66,3832.11ZM7585.74,3817.68C7546.82,3819.62 7514.32,3812.58 7502.7,3802.42C7516.04,3809.43 7561.34,3816.08 7585.74,3817.68ZM8000.68,3818.28C8017.2,3816.69 8066.81,3819.18 8050.38,3821.56C8022.59,3825.57 7842.22,3842.93 7833.93,3842.38C7825.65,3841.84 7964.6,3821.76 8000.68,3818.28Z" style="fill:rgb(81,146,241);fill-opacity:0.36;"/>
            </g>
        </g>
    </g>
</svg>
