<?xml version="1.0" encoding="UTF-8" standalone="no"?>
<!DOCTYPE svg PUBLIC "-//W3C//DTD SVG 1.1//EN" "http://www.w3.org/Graphics/SVG/1.1/DTD/svg11.dtd">
<svg width="100%" height="100%" viewBox="0 0 609 30" version="1.1" xmlns="http://www.w3.org/2000/svg" xmlns:xlink="http://www.w3.org/1999/xlink" xml:space="preserve" xmlns:serif="http://www.serif.com/" style="fill-rule:evenodd;clip-rule:evenodd;stroke-linejoin:round;stroke-miterlimit:2;">
    <g transform="matrix(1,0,0,1,-7394.02,-3831.17)">
        <g transform="matrix(33.9797,0,0,1.99289,-34679.8,3426.43)">
            <g id="Cloud-Large" serif:id="Cloud Large" transform="matrix(0.0294293,0,0,0.501784,1019.06,-1719.33)">
                <path d="M7793.19,3852.01L7948.69,3856.18C7948.69,3856.18 7522.58,3861.76 7451.87,3859.8C7428.46,3859.15 7484.11,3844.32 7518.83,3844.29C7520.77,3844.28 7526.87,3844.19 7529.58,3844.07C7542.25,3843.53 7574.35,3843.09 7593.22,3843.59C7626.64,3844.49 7724.91,3849.78 7724.91,3849.78C7718.92,3849.75 7759.45,3851.11 7759.45,3851.11C7759.45,3851.11 7792.9,3852.24 7793.19,3852.01ZM7606.74,3841.92C7606.77,3841.86 7606.82,3841.75 7606.76,3841.75C7598.18,3841.24 7552.74,3841.59 7555.24,3838.87C7570.03,3830.8 7606.85,3831.17 7624.17,3831.17C7710.59,3831.17 7912.03,3846.98 7926.01,3850.07C7935.61,3852.2 7793.05,3849.06 7792.24,3849.03L7606.74,3841.92ZM8054.9,3850.53C8054.9,3850.53 7948.84,3851.42 7933.79,3850.53C7923.39,3849.91 7954.22,3845.16 7964.58,3845.16C7984.77,3845.16 8054.9,3850.53 8054.9,3850.53Z" style="fill:rgb(81,146,241);fill-opacity:0.36;"/>
            </g>
        </g>
    </g>
</svg>
