<?xml version="1.0" encoding="UTF-8" standalone="no"?>
<!DOCTYPE svg PUBLIC "-//W3C//DTD SVG 1.1//EN" "http://www.w3.org/Graphics/SVG/1.1/DTD/svg11.dtd">
<svg width="100%" height="100%" viewBox="0 0 15 20" version="1.1" xmlns="http://www.w3.org/2000/svg" xmlns:xlink="http://www.w3.org/1999/xlink" xml:space="preserve" xmlns:serif="http://www.serif.com/" style="fill-rule:evenodd;clip-rule:evenodd;stroke-linejoin:round;stroke-miterlimit:2;">
    <g transform="matrix(1,0,0,1,-16.7485,-42.4848)">
        <g transform="matrix(0.975,0,0,2.65937,0,0)">
            <g transform="matrix(0.785092,0.10149,-0.27682,0.287837,33.6645,19.6576)">
                <path d="M0,8.095C-0.552,7.824 -3.23,6.511 -3.73,6.334C-4.23,6.147 -4.595,6.064 -4.959,6.605C-5.324,7.147 -6.376,8.366 -6.689,8.72C-7.012,9.085 -7.324,9.127 -7.876,8.856C-8.418,8.585 -10.179,8.022 -12.263,6.167C-13.877,4.74 -14.982,2.969 -15.295,2.428C-15.607,1.886 -15.326,1.594 -15.055,1.323C-14.805,1.073 -14.513,0.687 -14.232,0.375C-14.159,0.281 -14.097,0.198 -14.034,0.115C-13.909,-0.084 -13.815,-0.271 -13.69,-0.531C-13.503,-0.896 -13.596,-1.209 -13.732,-1.48C-13.867,-1.751 -14.961,-4.418 -15.42,-5.501C-15.868,-6.585 -16.326,-6.398 -16.649,-6.398C-16.962,-6.398 -17.327,-6.449 -17.691,-6.449C-18.056,-6.449 -18.649,-6.314 -19.15,-5.772C-19.65,-5.231 -21.056,-3.918 -21.056,-1.251C-21.056,-0.625 -20.941,0 -20.775,0.594C-20.223,2.5 -19.035,4.073 -18.827,4.345C-18.556,4.699 -15.055,10.345 -9.512,12.523C-3.959,14.68 -3.959,13.961 -2.959,13.867C-1.959,13.783 0.271,12.565 0.718,11.294C1.178,10.033 1.178,8.949 1.042,8.72C0.906,8.502 0.541,8.366 0,8.095" style="fill:rgb(20,70,140);"/>
            </g>
        </g>
    </g>
</svg>
