<?xml version="1.0" encoding="UTF-8" standalone="no"?>
<!DOCTYPE svg PUBLIC "-//W3C//DTD SVG 1.1//EN" "http://www.w3.org/Graphics/SVG/1.1/DTD/svg11.dtd">
<svg width="100%" height="100%" viewBox="0 0 994 133" version="1.1" xmlns="http://www.w3.org/2000/svg" xmlns:xlink="http://www.w3.org/1999/xlink" xml:space="preserve" xmlns:serif="http://www.serif.com/" style="fill-rule:evenodd;clip-rule:evenodd;stroke-linejoin:round;stroke-miterlimit:2;">
    <g transform="matrix(1,0,0,1,-10254.8,-258.466)">
        <g transform="matrix(33.9797,0,0,1.98326,-31643.5,-113.12)">
            <g transform="matrix(0.00576838,0,0,0.0988308,1228.6,-216.505)">
                <path d="M3252.49,4199.1L3252.49,4277.77L3264.37,4277.77C3264.37,4277.77 3263.92,4369.44 3263.92,4392.11L3297.97,4392.11L3297.97,4565.31L3310.13,4565.31L3310.13,4553.86L3386.09,4553.86L3386.09,4567.92L3398.39,4567.92L3398.39,4495.61L3430.14,4495.61L3431.99,4093.96L3459.12,4093.96L3459.12,4086.43L3481.48,4086.43L3481.48,4093.96L3484.64,4093.96L3485.03,4086.43L3496.92,4086.43L3496.92,4093.96L3500.19,4093.96L3500.19,4086.43L3518.2,4086.43C3518.2,4086.43 3518.32,4093.24 3518.2,4093.96C3520.21,4093.88 3549.78,4093.96 3549.78,4093.96L3549.78,4497.33C3552.87,4497.33 3565.37,4497.34 3565.37,4497.34L3565.37,4639.3L3630.33,4639.3L3630.33,4300.66L3652.22,4300.66L3652.22,4215.32L3866.23,4215.32C3866.65,4217.44 3867.06,4218.59 3867.08,4219.73C3867.74,4264.92 3868.29,4310.11 3869.16,4355.3C3869.23,4359.1 3875.93,4367.7 3875.93,4367.7L3875.93,4421.61L3869.04,4421.61C3869,4469.41 3869,4517.2 3869.03,4565C3869.03,4568.23 3869.55,4574.73 3869.55,4574.73L3932.94,4574.73L3932.94,4588.36C3937.3,4588.56 3941.81,4588.77 3947.12,4589.01L3947.12,4603.62L4013.41,4603.62L4013.41,4595.23L4016.54,4593.95L4043.72,4593.95L4043.72,4584.29L4070.14,4584.29C4070.14,4584.29 4070.74,4600.96 4070.96,4603.51C4075.29,4604.23 4099.29,4603.51 4099.29,4603.51L4099.29,4596.39L4116.3,4596.39L4178.85,4596.11L4178.85,4584.52L4190.23,4584.52L4190.23,4568.17L4194.41,4568.07L4194.41,4584.52L4201.86,4584.52L4201.86,4631.28L4229.72,4630.66L4229.72,4607.21L4286.76,4607.21L4286.76,4631.84L4304.67,4631.84L4304.67,4619.05L4338.65,4619.05L4339.21,4631.84L4364.61,4631.84L4399.43,4631.16L4399.43,4592.59L4480.85,4592.73L4480.85,4612.96L4635.47,4612.96L4635.71,4557.12L4692.77,4557.12L4692.77,4539.38L4776.01,4539.38L4776.01,4535.27L4779.5,4535.27C4780.75,4534.66 4781.77,4534.55 4782.55,4535.27L4784,4535.27L4784,4539.1C4784.01,4539.19 4784.03,4539.29 4784.04,4539.38L4790.71,4539.38L4790.71,4524.69L4821.51,4524.69L4821.51,4546.16C4822,4546.31 4822.5,4546.46 4823.01,4546.61L4842.74,4546.61L4842.74,4524.69L4874.53,4524.69L4874.53,4537.52L4874.58,4537.53C4874.56,4537.66 4874.54,4537.8 4874.53,4537.93L4874.53,4626.62L4920.71,4626.62L4920.71,4650.82L5010.19,4650.82L5010.19,4585.3C5025.54,4584.32 5054.36,4585.3 5054.36,4585.3L5054.36,4566.76L5117.12,4566.76L5117.12,4584.82L5171.29,4584.82C5171.5,4583.98 5215.05,4584.82 5215.05,4584.82L5249.41,4584.82C5249.94,4595.4 5249.82,4633.94 5249.82,4633.94L5279.89,4633.94L5279.89,4610.11L5332.72,4610.11L5332.72,4627.35L5503.06,4627.35L5503.06,4661.82L5560.57,4661.82L5560.57,4632.18L5587.23,4632.18L5587.23,4614.13L5641.03,4614.13L5641.03,4583.1L5727.57,4583.1L5727.57,4572.64L5757.6,4572.64L5757.6,4593.34L5778.81,4593.34L5778.81,4610.57L5835.54,4610.57L5835.54,4760.29L768.873,4760.29L768.873,4519.52L780.032,4519.52C780.032,4519.52 811.665,4519.69 828.865,4519.69L828.865,4459.51L942.128,4459.51L942.128,4516.03L961.119,4516.03C961.119,4516.03 960.428,4519.57 960.082,4520.34C966.028,4523.11 979.703,4528.63 979.703,4528.63L979.703,4514.12L1032.97,4514.12L1032.97,4536.36L1117.88,4536.36L1117.88,4519.35L1122.74,4519.35L1142.49,4502.1L1286.87,4502.1L1286.87,4580.51L1313.3,4580.76L1313.3,4547.94L1329.4,4547.94L1329.4,4532.2L1363.56,4532.2L1363.56,4521.35L1460.19,4521.35L1460.19,4626.15L1483.4,4626.15L1483.4,4631.7L1492.43,4631.7L1492.43,4616.84L1507.46,4616.84L1507.54,4562.59L1520.84,4562.59L1520.84,4531.24C1520.84,4531.24 1558.24,4530.83 1614.43,4530.2L1614.43,4495.46C1634.43,4495.33 1656.36,4495.47 1656.36,4495.47L1656.36,4483.88L1667.73,4483.88L1667.73,4467.53L1671.92,4467.43L1671.92,4483.88L1679.37,4483.88L1679.37,4567.64C1688.44,4567.54 1697.74,4567.44 1707.22,4567.33L1707.22,4506.57L1764.26,4506.57L1764.26,4528.52C1770.21,4528.45 1776.18,4528.39 1782.18,4528.32L1782.18,4518.41L1816.15,4518.41L1816.57,4527.93C1836.78,4527.7 1857.02,4527.48 1876.94,4527.25L1876.94,4491.95L1958.35,4492.09L1958.35,4512.32L1998.74,4512.32L1998.74,4525.88C2072.19,4525.05 2124.33,4524.42 2124.33,4524.42L2124.33,4517.69L2144.77,4517.69L2144.77,4530.91L2178.88,4530.91L2178.88,4460.3L2202.86,4460.3L2202.86,4413.71C2202.86,4413.71 2211.4,4413.34 2216.23,4413.12C2216.23,4405.61 2216.2,4390.91 2216.2,4390.91L2273.62,4318.4L2326.28,4390.91L2326.41,4417.86L2341.09,4418.68L2341.09,4460.01L2359.38,4460.01L2359.38,4530.98L2392.99,4530.98L2392.99,4494.92L2393.65,4491.62C2393.65,4491.62 2393.51,4427.68 2393.82,4396.03C2393.86,4392.31 2393.86,4380.12 2393.34,4380.02L2393.34,4340.95L2458.18,4313.25L2472.69,4313.25L2472.69,4304.9L2470.32,4304.9L2469.53,4298.95L2472.69,4298.95L2472.69,4289.57L2470.32,4289.57L2469.53,4283.62L2472.69,4283.62L2472.69,4274.25L2482.03,4267.42L2490.97,4274.25L2490.97,4283.62L2494.12,4283.62L2493.34,4289.57L2490.97,4289.57L2490.97,4298.95L2494.12,4298.95L2493.34,4304.9L2490.97,4304.9L2490.97,4313.25L2507.48,4313.25L2568.82,4340.22L2570.06,4340.22C2570.06,4340.22 2570.07,4368.37 2570.46,4373.19C2570.58,4374.61 2571.12,4396.94 2570.98,4406.74C2570.9,4412.23 2571.38,4417.71 2571.39,4423.2C2571.45,4442.65 2571.41,4463.51 2571.41,4482.89L2610.9,4482.89L2644.07,4464.09L2644.07,4444.05C2644.07,4444.05 2648.61,4414.05 2650.88,4414.05C2653.15,4414.05 2657.69,4444.05 2657.69,4444.05L2657.69,4464.09L2690.86,4482.89L2730.06,4482.89L2730.06,4397.94L2729.6,4341.14L2729.79,4341.14L2797.65,4313.5L2812.16,4313.5L2812.16,4305.15L2809.79,4305.15L2809.01,4299.19L2812.16,4299.19L2812.16,4289.82L2809.79,4289.82L2809.01,4283.87L2812.16,4283.87L2812.16,4274.49L2821.51,4267.66L2830.44,4274.49L2830.44,4283.87L2833.6,4283.87L2832.81,4289.82L2830.44,4289.82L2830.44,4299.19L2833.6,4299.19L2832.81,4305.15L2830.44,4305.15L2830.44,4313.5L2846.95,4313.5L2906.82,4341.14L2906.85,4341.14L2906.85,4341.15L2906.95,4341.2L2906.85,4341.2L2906.85,4516.68L2950.38,4516.68L2950.38,4377.71L3090.46,4375.53L3090.51,4278.37L3103.32,4278.37L3103.26,4199.1L3112.16,4199.1L3112.16,4188.42C3115.71,4160.08 3130.22,4140.84 3155.08,4130.2L3155.08,4114.86L3201.68,4114.86L3201.68,4130.2C3226.54,4140.84 3241.05,4160.08 3244.6,4188.42L3244.6,4199.1L3252.49,4199.1Z" style="fill:rgb(81,146,241);"/>
            </g>
        </g>
    </g>
</svg>
