<?xml version="1.0" encoding="UTF-8" standalone="no"?>
<!DOCTYPE svg PUBLIC "-//W3C//DTD SVG 1.1//EN" "http://www.w3.org/Graphics/SVG/1.1/DTD/svg11.dtd">
<svg width="100%" height="100%" viewBox="0 0 33 35" version="1.1" xmlns="http://www.w3.org/2000/svg" xmlns:xlink="http://www.w3.org/1999/xlink" xml:space="preserve" xmlns:serif="http://www.serif.com/" style="fill-rule:evenodd;clip-rule:evenodd;stroke-linejoin:round;stroke-miterlimit:2;">
    <g transform="matrix(1,0,0,1,-8066.79,-3709.29)">
        <g transform="matrix(0.975,0,0,2.71314,7085.4,3539.86)">
            <g transform="matrix(0.305225,0,0,0.109686,-2437.9,123.643)">
                <path d="M11351.7,-472.667C11345.3,-469.247 11338,-467.307 11330.3,-467.307C11305.3,-467.307 11285,-487.611 11285,-512.62C11285,-537.629 11305.3,-557.934 11330.3,-557.934C11355.3,-557.934 11375.6,-537.629 11375.6,-512.62C11375.6,-501.387 11371.5,-491.103 11364.7,-483.182L11393.4,-454.548C11396.6,-451.296 11396.6,-446.015 11393.4,-442.763C11390.1,-439.511 11384.8,-439.511 11381.6,-442.763L11351.7,-472.667ZM11330.3,-541.267C11314.5,-541.267 11301.7,-528.431 11301.7,-512.62C11301.7,-496.809 11314.5,-483.973 11330.3,-483.973C11346.1,-483.973 11359,-496.809 11359,-512.62C11359,-528.431 11346.1,-541.267 11330.3,-541.267Z" style="fill:white;"/>
            </g>
        </g>
    </g>
</svg>
