<?xml version="1.0" encoding="UTF-8" standalone="no"?>
<!DOCTYPE svg PUBLIC "-//W3C//DTD SVG 1.1//EN" "http://www.w3.org/Graphics/SVG/1.1/DTD/svg11.dtd">
<svg width="100%" height="100%" viewBox="0 0 13 13" version="1.1" xmlns="http://www.w3.org/2000/svg" xmlns:xlink="http://www.w3.org/1999/xlink" xml:space="preserve" xmlns:serif="http://www.serif.com/" style="fill-rule:evenodd;clip-rule:evenodd;stroke-linejoin:round;stroke-miterlimit:2;">
    <g transform="matrix(1,0,0,1,-1375.62,-296.871)">
        <g transform="matrix(0.975,0,0,2.65937,245.683,5)">
            <g transform="matrix(0.306232,-0.112273,0.306232,0.112273,711.3,201.755)">
                <path d="M1138.65,353.507C1132.11,352.579 1127.07,346.952 1127.07,340.159C1127.07,332.717 1133.11,326.676 1140.56,326.676C1148,326.676 1154.04,332.717 1154.04,340.159C1154.04,346.888 1149.1,352.472 1142.65,353.479L1142.65,361.712C1142.65,362.816 1141.75,363.712 1140.65,363.712C1139.54,363.712 1138.65,362.816 1138.65,361.712L1138.65,353.507ZM1140.56,330.676C1135.32,330.676 1131.07,334.925 1131.07,340.159C1131.07,345.392 1135.32,349.641 1140.56,349.641C1145.79,349.641 1150.04,345.392 1150.04,340.159C1150.04,334.925 1145.79,330.676 1140.56,330.676Z" style="fill:rgb(20,70,140);"/>
            </g>
        </g>
    </g>
</svg>
