<?xml version="1.0" encoding="UTF-8" standalone="no"?>
<!DOCTYPE svg PUBLIC "-//W3C//DTD SVG 1.1//EN" "http://www.w3.org/Graphics/SVG/1.1/DTD/svg11.dtd">
<svg width="100%" height="100%" viewBox="0 0 322 42" version="1.1" xmlns="http://www.w3.org/2000/svg" xmlns:xlink="http://www.w3.org/1999/xlink" xml:space="preserve" xmlns:serif="http://www.serif.com/" style="fill-rule:evenodd;clip-rule:evenodd;stroke-linejoin:round;stroke-miterlimit:2;">
    <g transform="matrix(1,0,0,1,-674.462,-40.2382)">
        <g transform="matrix(1.38658,0,0,3.74359,0,0)">
            <g transform="matrix(0.7212,0,0,0.267123,0,0)">
                <path d="M990.424,56.794C989.386,56.794 988.469,56.562 987.672,56.1C986.876,55.638 986.257,54.984 985.816,54.138C985.375,53.291 985.155,52.292 985.155,51.14C985.155,50.145 985.375,49.213 985.816,48.346C986.257,47.478 986.879,46.778 987.683,46.244C988.486,45.711 989.422,45.444 990.488,45.444C991.086,45.444 991.669,45.526 992.238,45.69C992.806,45.853 993.322,46.134 993.784,46.532C994.246,46.93 994.616,47.471 994.894,48.154C995.171,48.836 995.302,49.69 995.288,50.714L988.291,50.842C988.291,51.61 988.387,52.299 988.579,52.911C988.771,53.522 989.087,54.006 989.528,54.362C989.969,54.717 990.559,54.895 991.299,54.895C991.583,54.895 991.907,54.845 992.27,54.746C992.632,54.646 993.002,54.479 993.379,54.244C993.756,54.01 994.108,53.693 994.435,53.295L995.395,54.191C994.883,54.916 994.335,55.467 993.752,55.844C993.169,56.221 992.59,56.474 992.014,56.602C991.438,56.73 990.908,56.794 990.424,56.794ZM988.419,49.348L992.344,49.348C992.33,48.751 992.248,48.278 992.099,47.93C991.95,47.581 991.747,47.329 991.491,47.172C991.235,47.016 990.936,46.938 990.595,46.938C989.969,46.938 989.478,47.162 989.123,47.61C988.767,48.058 988.533,48.637 988.419,49.348ZM677.512,56.794C676.958,56.794 676.449,56.694 675.987,56.495C675.525,56.296 675.155,56.026 674.878,55.684C674.6,55.343 674.462,54.952 674.462,54.511C674.462,54.056 674.586,53.65 674.835,53.295C675.084,52.939 675.45,52.754 675.934,52.74C676.474,52.712 676.862,52.843 677.096,53.135C677.331,53.426 677.455,53.757 677.47,54.127C677.484,54.241 677.473,54.369 677.438,54.511C677.402,54.653 677.349,54.788 677.278,54.916C677.349,55.058 677.459,55.151 677.608,55.194C677.758,55.236 677.868,55.258 677.939,55.258C678.238,55.258 678.469,55.126 678.632,54.863C678.796,54.6 678.878,54.17 678.878,53.572L678.878,45.018C678.878,44.634 678.885,44.264 678.899,43.908C678.913,43.553 678.934,43.282 678.963,43.098C678.735,43.112 678.451,43.122 678.11,43.13C677.768,43.137 677.519,43.147 677.363,43.162L677.363,41.519L683.486,41.519L683.486,42.927C683.173,42.941 682.902,42.984 682.675,43.055C682.447,43.126 682.273,43.286 682.152,43.535C682.031,43.784 681.971,44.2 681.971,44.783L681.971,51.034C681.971,53.082 681.587,54.554 680.819,55.45C680.051,56.346 678.949,56.794 677.512,56.794ZM689.608,56.794C688.57,56.794 687.653,56.562 686.856,56.1C686.06,55.638 685.441,54.984 685,54.138C684.559,53.291 684.339,52.292 684.339,51.14C684.339,50.145 684.559,49.213 685,48.346C685.441,47.478 686.063,46.778 686.867,46.244C687.67,45.711 688.606,45.444 689.672,45.444C690.27,45.444 690.853,45.526 691.422,45.69C691.99,45.853 692.506,46.134 692.968,46.532C693.43,46.93 693.8,47.471 694.078,48.154C694.355,48.836 694.486,49.69 694.472,50.714L687.475,50.842C687.475,51.61 687.571,52.299 687.763,52.911C687.955,53.522 688.271,54.006 688.712,54.362C689.153,54.717 689.743,54.895 690.483,54.895C690.767,54.895 691.091,54.845 691.454,54.746C691.816,54.646 692.186,54.479 692.563,54.244C692.94,54.01 693.292,53.693 693.619,53.295L694.579,54.191C694.067,54.916 693.519,55.467 692.936,55.844C692.353,56.221 691.774,56.474 691.198,56.602C690.622,56.73 690.092,56.794 689.608,56.794ZM687.603,49.348L691.528,49.348C691.514,48.751 691.432,48.278 691.283,47.93C691.134,47.581 690.931,47.329 690.675,47.172C690.419,47.016 690.12,46.938 689.779,46.938C689.153,46.938 688.662,47.162 688.307,47.61C687.951,48.058 687.717,48.637 687.603,49.348ZM697.566,45.167C697.566,43.446 697.942,42.212 698.696,41.466C699.45,40.719 700.467,40.346 701.747,40.346C702.415,40.346 702.949,40.442 703.347,40.634C703.745,40.826 704.03,41.064 704.2,41.348C704.371,41.633 704.456,41.924 704.456,42.223C704.456,42.593 704.342,42.92 704.115,43.204C703.887,43.489 703.56,43.638 703.134,43.652C702.721,43.666 702.401,43.556 702.174,43.322C701.946,43.087 701.832,42.792 701.832,42.436C701.832,42.365 701.836,42.294 701.843,42.223C701.85,42.152 701.861,42.081 701.875,42.01C701.804,41.938 701.722,41.892 701.63,41.871C701.537,41.85 701.455,41.839 701.384,41.839C701.157,41.839 700.979,41.906 700.851,42.042C700.723,42.177 700.638,42.344 700.595,42.543C700.552,42.742 700.531,42.948 700.531,43.162L700.531,45.786L702.92,45.786L702.92,47.428L700.552,47.492L700.574,52.975C700.574,53.174 700.566,53.462 700.552,53.839C700.538,54.216 700.517,54.568 700.488,54.895C700.73,54.866 701.004,54.849 701.31,54.842C701.615,54.834 701.839,54.831 701.982,54.831L701.982,56.452L696.286,56.452L696.286,55.066C696.684,55.066 696.972,54.987 697.15,54.831C697.327,54.674 697.441,54.45 697.491,54.159C697.541,53.867 697.566,53.537 697.566,53.167L697.566,47.535L696.008,47.556L696.008,45.786L697.566,45.786L697.566,45.167ZM705.651,45.167C705.651,43.446 706.028,42.212 706.782,41.466C707.535,40.719 708.552,40.346 709.832,40.346C710.501,40.346 711.034,40.442 711.432,40.634C711.83,40.826 712.115,41.064 712.286,41.348C712.456,41.633 712.542,41.924 712.542,42.223C712.542,42.593 712.428,42.92 712.2,43.204C711.973,43.489 711.646,43.638 711.219,43.652C710.806,43.666 710.486,43.556 710.259,43.322C710.031,43.087 709.918,42.792 709.918,42.436C709.918,42.365 709.921,42.294 709.928,42.223C709.935,42.152 709.946,42.081 709.96,42.01C709.889,41.938 709.807,41.892 709.715,41.871C709.622,41.85 709.541,41.839 709.47,41.839C709.242,41.839 709.064,41.906 708.936,42.042C708.808,42.177 708.723,42.344 708.68,42.543C708.638,42.742 708.616,42.948 708.616,43.162L708.616,45.786L711.006,45.786L711.006,47.428L708.638,47.492L708.659,52.975C708.659,53.174 708.652,53.462 708.638,53.839C708.623,54.216 708.602,54.568 708.574,54.895C708.815,54.866 709.089,54.849 709.395,54.842C709.701,54.834 709.925,54.831 710.067,54.831L710.067,56.452L704.371,56.452L704.371,55.066C704.769,55.066 705.057,54.987 705.235,54.831C705.413,54.674 705.526,54.45 705.576,54.159C705.626,53.867 705.651,53.537 705.651,53.167L705.651,47.535L704.094,47.556L704.094,45.786L705.651,45.786L705.651,45.167ZM717.342,56.794C716.303,56.794 715.386,56.562 714.59,56.1C713.793,55.638 713.174,54.984 712.734,54.138C712.293,53.291 712.072,52.292 712.072,51.14C712.072,50.145 712.293,49.213 712.734,48.346C713.174,47.478 713.797,46.778 714.6,46.244C715.404,45.711 716.339,45.444 717.406,45.444C718.003,45.444 718.586,45.526 719.155,45.69C719.724,45.853 720.239,46.134 720.702,46.532C721.164,46.93 721.534,47.471 721.811,48.154C722.088,48.836 722.22,49.69 722.206,50.714L715.208,50.842C715.208,51.61 715.304,52.299 715.496,52.911C715.688,53.522 716.005,54.006 716.446,54.362C716.886,54.717 717.477,54.895 718.216,54.895C718.501,54.895 718.824,54.845 719.187,54.746C719.55,54.646 719.919,54.479 720.296,54.244C720.673,54.01 721.025,53.693 721.352,53.295L722.312,54.191C721.8,54.916 721.253,55.467 720.67,55.844C720.086,56.221 719.507,56.474 718.931,56.602C718.355,56.73 717.825,56.794 717.342,56.794ZM715.336,49.348L719.262,49.348C719.247,48.751 719.166,48.278 719.016,47.93C718.867,47.581 718.664,47.329 718.408,47.172C718.152,47.016 717.854,46.938 717.512,46.938C716.886,46.938 716.396,47.162 716.04,47.61C715.685,48.058 715.45,48.637 715.336,49.348ZM723.976,55.066C724.374,55.066 724.659,54.987 724.83,54.831C725,54.674 725.11,54.45 725.16,54.159C725.21,53.867 725.235,53.537 725.235,53.167L725.235,49.583C725.235,49.327 725.242,49.039 725.256,48.719C725.27,48.399 725.292,48.082 725.32,47.77C725.093,47.784 724.826,47.794 724.52,47.802C724.214,47.809 723.983,47.819 723.827,47.834L723.827,46.212L724.68,46.212C725.235,46.212 725.743,46.141 726.206,45.999C726.668,45.857 726.97,45.714 727.112,45.572L728.158,45.572C728.186,45.714 728.207,45.981 728.222,46.372C728.236,46.763 728.243,47.108 728.243,47.407C728.627,46.938 728.99,46.561 729.331,46.276C729.672,45.992 730.01,45.782 730.344,45.647C730.678,45.512 731.016,45.444 731.358,45.444C731.855,45.444 732.289,45.583 732.659,45.86C733.029,46.138 733.214,46.589 733.214,47.215C733.214,47.428 733.164,47.652 733.064,47.887C732.965,48.122 732.808,48.317 732.595,48.474C732.382,48.63 732.09,48.708 731.72,48.708C731.436,48.708 731.144,48.623 730.846,48.452C730.547,48.282 730.376,47.954 730.334,47.471C730.049,47.471 729.765,47.588 729.48,47.823C729.196,48.058 728.943,48.335 728.723,48.655C728.502,48.975 728.35,49.27 728.264,49.54L728.264,53.018C728.264,53.217 728.257,53.498 728.243,53.86C728.229,54.223 728.207,54.568 728.179,54.895C728.406,54.866 728.659,54.849 728.936,54.842C729.214,54.834 729.423,54.831 729.566,54.831L729.566,56.452L723.976,56.452L723.976,55.066ZM739.251,56.794C738.639,56.794 738.042,56.715 737.459,56.559C736.876,56.402 736.421,56.203 736.094,55.962L736.136,56.602L734.515,56.602L734.43,52.932L735.816,52.932C735.859,53.359 736.03,53.75 736.328,54.106C736.627,54.461 737.018,54.742 737.502,54.948C737.985,55.154 738.526,55.258 739.123,55.258C739.365,55.258 739.596,55.222 739.816,55.151C740.037,55.08 740.222,54.962 740.371,54.799C740.52,54.635 740.595,54.433 740.595,54.191C740.595,53.921 740.499,53.7 740.307,53.53C740.115,53.359 739.838,53.195 739.475,53.039C739.112,52.882 738.661,52.705 738.12,52.506C737.679,52.335 737.235,52.157 736.787,51.972C736.339,51.787 735.926,51.563 735.55,51.3C735.173,51.037 734.87,50.71 734.643,50.319C734.415,49.928 734.302,49.448 734.302,48.879C734.302,48.466 734.38,48.058 734.536,47.652C734.693,47.247 734.934,46.877 735.262,46.543C735.589,46.209 736.005,45.942 736.51,45.743C737.014,45.544 737.615,45.444 738.312,45.444C738.696,45.444 739.134,45.505 739.624,45.626C740.115,45.746 740.531,45.928 740.872,46.17L740.872,45.551L742.494,45.551L742.494,49.327L741.107,49.327C741.022,48.829 740.847,48.402 740.584,48.047C740.321,47.691 739.983,47.418 739.571,47.226C739.158,47.034 738.696,46.938 738.184,46.938C737.829,46.938 737.505,47.023 737.214,47.194C736.922,47.364 736.776,47.656 736.776,48.068C736.776,48.395 736.89,48.655 737.118,48.847C737.345,49.039 737.658,49.199 738.056,49.327C738.454,49.455 738.895,49.604 739.379,49.775C740.104,50.017 740.748,50.301 741.31,50.628C741.871,50.955 742.316,51.35 742.643,51.812C742.97,52.274 743.134,52.84 743.134,53.508C743.134,54.248 742.949,54.859 742.579,55.343C742.209,55.826 741.729,56.189 741.139,56.431C740.549,56.673 739.919,56.794 739.251,56.794ZM750.131,56.794C749.107,56.794 748.182,56.573 747.358,56.132C746.533,55.691 745.882,55.062 745.406,54.244C744.929,53.426 744.691,52.463 744.691,51.354C744.691,50.173 744.936,49.138 745.427,48.25C745.918,47.361 746.572,46.671 747.39,46.18C748.207,45.69 749.1,45.444 750.067,45.444C751.091,45.444 752.008,45.665 752.819,46.106C753.63,46.546 754.27,47.176 754.739,47.994C755.208,48.811 755.443,49.789 755.443,50.927C755.443,52.122 755.215,53.16 754.76,54.042C754.305,54.923 753.679,55.602 752.883,56.079C752.086,56.555 751.169,56.794 750.131,56.794ZM750.216,55.279C750.785,55.265 751.215,55.066 751.507,54.682C751.798,54.298 752.001,53.814 752.115,53.231C752.229,52.648 752.286,52.058 752.286,51.46C752.286,50.934 752.246,50.401 752.168,49.86C752.09,49.32 751.966,48.829 751.795,48.388C751.624,47.947 751.393,47.592 751.102,47.322C750.81,47.051 750.451,46.923 750.024,46.938C749.47,46.952 749.032,47.151 748.712,47.535C748.392,47.919 748.165,48.399 748.03,48.975C747.894,49.551 747.827,50.152 747.827,50.778C747.827,51.503 747.905,52.214 748.062,52.911C748.218,53.608 748.47,54.18 748.819,54.628C749.167,55.076 749.633,55.293 750.216,55.279ZM757.192,56.452L757.192,55.066C757.59,55.066 757.875,54.987 758.046,54.831C758.216,54.674 758.326,54.45 758.376,54.159C758.426,53.867 758.451,53.537 758.451,53.167L758.451,49.583C758.451,49.327 758.458,49.039 758.472,48.719C758.486,48.399 758.508,48.082 758.536,47.77C758.309,47.784 758.042,47.794 757.736,47.802C757.43,47.809 757.199,47.819 757.043,47.834L757.043,46.212C757.697,46.212 758.252,46.177 758.707,46.106C759.162,46.034 759.521,45.949 759.784,45.85C760.047,45.75 760.229,45.658 760.328,45.572L761.374,45.572C761.402,45.757 761.416,45.892 761.416,45.978C761.416,46.063 761.42,46.145 761.427,46.223C761.434,46.301 761.459,46.44 761.502,46.639C761.786,46.411 762.113,46.209 762.483,46.031C762.853,45.853 763.222,45.711 763.592,45.604C763.962,45.498 764.289,45.444 764.574,45.444C765.882,45.444 766.81,45.818 767.358,46.564C767.905,47.311 768.179,48.509 768.179,50.159L768.179,53.018C768.179,53.217 768.172,53.498 768.158,53.86C768.143,54.223 768.122,54.568 768.094,54.895C768.335,54.866 768.591,54.849 768.862,54.842C769.132,54.834 769.338,54.831 769.48,54.831L769.48,56.452L763.891,56.452L763.891,55.066C764.289,55.066 764.577,54.987 764.755,54.831C764.933,54.674 765.046,54.45 765.096,54.159C765.146,53.867 765.171,53.537 765.171,53.167L765.15,50.138C765.15,49.213 765.018,48.527 764.755,48.079C764.492,47.631 764.047,47.407 763.422,47.407C763.066,47.407 762.714,47.485 762.366,47.642C762.017,47.798 761.722,47.983 761.48,48.196L761.48,53.018C761.48,53.217 761.473,53.498 761.459,53.86C761.445,54.223 761.423,54.568 761.395,54.895C761.622,54.866 761.875,54.849 762.152,54.842C762.43,54.834 762.639,54.831 762.782,54.831L762.782,56.452L757.192,56.452ZM787.998,46.298C787.813,45.117 787.418,44.228 786.814,43.631C786.209,43.034 785.409,42.728 784.414,42.714C783.674,42.714 783.027,42.884 782.472,43.226C781.918,43.567 781.459,44.022 781.096,44.591C780.734,45.16 780.463,45.807 780.286,46.532C780.108,47.258 780.019,48.004 780.019,48.772C780.019,49.995 780.193,51.08 780.542,52.026C780.89,52.971 781.398,53.714 782.067,54.255C782.735,54.795 783.546,55.066 784.499,55.066C785.395,55.066 786.284,54.834 787.166,54.372C788.047,53.91 788.787,53.266 789.384,52.442L790.408,53.38C789.711,54.333 788.979,55.055 788.211,55.546C787.443,56.036 786.693,56.367 785.96,56.538C785.228,56.708 784.57,56.794 783.987,56.794C782.892,56.794 781.896,56.598 781,56.207C780.104,55.816 779.333,55.275 778.686,54.586C778.038,53.896 777.541,53.092 777.192,52.175C776.844,51.258 776.67,50.266 776.67,49.199C776.67,48.232 776.826,47.272 777.139,46.319C777.452,45.366 777.918,44.502 778.536,43.727C779.155,42.952 779.934,42.333 780.872,41.871C781.811,41.409 782.899,41.178 784.136,41.178C784.691,41.178 785.299,41.266 785.96,41.444C786.622,41.622 787.244,41.882 787.827,42.223L787.742,41.327L789.384,41.327L789.384,46.298L787.998,46.298ZM796.915,56.794C795.891,56.794 794.966,56.573 794.142,56.132C793.317,55.691 792.666,55.062 792.19,54.244C791.713,53.426 791.475,52.463 791.475,51.354C791.475,50.173 791.72,49.138 792.211,48.25C792.702,47.361 793.356,46.671 794.174,46.18C794.991,45.69 795.884,45.444 796.851,45.444C797.875,45.444 798.792,45.665 799.603,46.106C800.414,46.546 801.054,47.176 801.523,47.994C801.992,48.811 802.227,49.789 802.227,50.927C802.227,52.122 801.999,53.16 801.544,54.042C801.089,54.923 800.463,55.602 799.667,56.079C798.87,56.555 797.953,56.794 796.915,56.794ZM797,55.279C797.569,55.265 797.999,55.066 798.291,54.682C798.582,54.298 798.785,53.814 798.899,53.231C799.013,52.648 799.07,52.058 799.07,51.46C799.07,50.934 799.03,50.401 798.952,49.86C798.874,49.32 798.75,48.829 798.579,48.388C798.408,47.947 798.177,47.592 797.886,47.322C797.594,47.051 797.235,46.923 796.808,46.938C796.254,46.952 795.816,47.151 795.496,47.535C795.176,47.919 794.949,48.399 794.814,48.975C794.678,49.551 794.611,50.152 794.611,50.778C794.611,51.503 794.689,52.214 794.846,52.911C795.002,53.608 795.254,54.18 795.603,54.628C795.951,55.076 796.417,55.293 797,55.279ZM808.392,56.794C807.539,56.794 806.853,56.63 806.334,56.303C805.814,55.976 805.438,55.464 805.203,54.767C804.968,54.07 804.851,53.174 804.851,52.079L804.851,49.626C804.851,49.37 804.858,49.074 804.872,48.74C804.886,48.406 804.901,48.082 804.915,47.77C804.687,47.784 804.421,47.794 804.115,47.802C803.809,47.809 803.578,47.819 803.422,47.834L803.422,46.212L803.635,46.212C804.517,46.212 805.214,46.141 805.726,45.999C806.238,45.857 806.565,45.714 806.707,45.572L807.88,45.572L807.88,52.1C807.88,53.025 808.001,53.711 808.243,54.159C808.485,54.607 808.869,54.831 809.395,54.831C809.765,54.831 810.138,54.728 810.515,54.522C810.892,54.315 811.201,54.077 811.443,53.807L811.443,49.626C811.443,49.37 811.45,49.074 811.464,48.74C811.478,48.406 811.5,48.082 811.528,47.77C811.301,47.784 811.034,47.794 810.728,47.802C810.422,47.809 810.191,47.819 810.035,47.834L810.035,46.212L810.547,46.212C811.215,46.212 811.806,46.138 812.318,45.988C812.83,45.839 813.157,45.7 813.299,45.572L814.472,45.572L814.472,53.018C814.472,53.217 814.465,53.498 814.451,53.86C814.437,54.223 814.415,54.568 814.387,54.895C814.614,54.866 814.867,54.849 815.144,54.842C815.422,54.834 815.631,54.831 815.774,54.831L815.774,56.452L811.72,56.452C811.706,56.267 811.688,56.082 811.667,55.898C811.646,55.713 811.621,55.528 811.592,55.343C811.151,55.713 810.678,56.047 810.174,56.346C809.669,56.644 809.075,56.794 808.392,56.794ZM817.374,56.452L817.374,55.066C817.772,55.066 818.056,54.987 818.227,54.831C818.398,54.674 818.508,54.45 818.558,54.159C818.607,53.867 818.632,53.537 818.632,53.167L818.632,49.583C818.632,49.327 818.639,49.039 818.654,48.719C818.668,48.399 818.689,48.082 818.718,47.77C818.49,47.784 818.223,47.794 817.918,47.802C817.612,47.809 817.381,47.819 817.224,47.834L817.224,46.212C817.878,46.212 818.433,46.177 818.888,46.106C819.343,46.034 819.702,45.949 819.966,45.85C820.229,45.75 820.41,45.658 820.51,45.572L821.555,45.572C821.583,45.757 821.598,45.892 821.598,45.978C821.598,46.063 821.601,46.145 821.608,46.223C821.615,46.301 821.64,46.44 821.683,46.639C821.967,46.411 822.294,46.209 822.664,46.031C823.034,45.853 823.404,45.711 823.774,45.604C824.143,45.498 824.47,45.444 824.755,45.444C826.063,45.444 826.991,45.818 827.539,46.564C828.086,47.311 828.36,48.509 828.36,50.159L828.36,53.018C828.36,53.217 828.353,53.498 828.339,53.86C828.325,54.223 828.303,54.568 828.275,54.895C828.517,54.866 828.773,54.849 829.043,54.842C829.313,54.834 829.519,54.831 829.662,54.831L829.662,56.452L824.072,56.452L824.072,55.066C824.47,55.066 824.758,54.987 824.936,54.831C825.114,54.674 825.228,54.45 825.278,54.159C825.327,53.867 825.352,53.537 825.352,53.167L825.331,50.138C825.331,49.213 825.199,48.527 824.936,48.079C824.673,47.631 824.229,47.407 823.603,47.407C823.247,47.407 822.895,47.485 822.547,47.642C822.198,47.798 821.903,47.983 821.662,48.196L821.662,53.018C821.662,53.217 821.654,53.498 821.64,53.86C821.626,54.223 821.605,54.568 821.576,54.895C821.804,54.866 822.056,54.849 822.334,54.842C822.611,54.834 822.821,54.831 822.963,54.831L822.963,56.452L817.374,56.452ZM835.251,56.794C834.824,56.794 834.415,56.744 834.024,56.644C833.633,56.545 833.278,56.356 832.958,56.079C832.638,55.802 832.385,55.393 832.2,54.852C832.015,54.312 831.923,53.594 831.923,52.698L831.966,47.556L830.515,47.556L830.515,45.786C830.956,45.771 831.382,45.622 831.795,45.338C832.207,45.053 832.559,44.683 832.851,44.228C833.142,43.773 833.338,43.297 833.438,42.799L835.016,42.799L834.995,45.786L837.704,45.786L837.704,47.428L834.995,47.492L834.974,52.74C834.974,53.067 835.006,53.391 835.07,53.711C835.134,54.031 835.258,54.294 835.443,54.5C835.628,54.706 835.898,54.81 836.254,54.81C836.453,54.81 836.726,54.738 837.075,54.596C837.423,54.454 837.797,54.098 838.195,53.53L839.219,54.49C838.835,55.058 838.437,55.499 838.024,55.812C837.612,56.125 837.217,56.353 836.84,56.495C836.463,56.637 836.133,56.722 835.848,56.751C835.564,56.779 835.365,56.794 835.251,56.794ZM842.334,62.234C841.793,62.234 841.334,62.074 840.958,61.754C840.581,61.434 840.392,61.01 840.392,60.484C840.392,60.1 840.517,59.762 840.766,59.471C841.014,59.179 841.338,59.026 841.736,59.012C842.049,58.998 842.316,59.101 842.536,59.322C842.757,59.542 842.867,59.844 842.867,60.228L842.867,60.356C842.867,60.399 842.86,60.449 842.846,60.506C842.874,60.506 842.91,60.498 842.952,60.484C843.08,60.442 843.219,60.324 843.368,60.132C843.518,59.94 843.663,59.688 843.806,59.375C843.962,59.048 844.115,58.682 844.264,58.276C844.414,57.871 844.545,57.448 844.659,57.007L841.288,50.244C840.89,49.448 840.63,48.847 840.51,48.442C840.389,48.036 840.307,47.677 840.264,47.364L839.283,47.407L839.283,45.786L844.595,45.786L844.595,47.151C844.069,47.208 843.781,47.407 843.731,47.748C843.681,48.09 843.742,48.445 843.912,48.815L846.003,53.594C846.145,53.224 846.33,52.651 846.558,51.876C846.785,51.101 847.055,50.258 847.368,49.348C847.425,49.163 847.5,48.946 847.592,48.698C847.685,48.449 847.788,48.2 847.902,47.951C848.015,47.702 848.136,47.499 848.264,47.343L847.048,47.407L847.048,45.786L850.846,45.786L850.846,47.151C850.405,47.25 850.038,47.521 849.747,47.962C849.455,48.402 849.196,48.943 848.968,49.583L846.302,57.199C845.903,58.351 845.526,59.3 845.171,60.047C844.815,60.794 844.417,61.345 843.976,61.7C843.535,62.056 842.988,62.234 842.334,62.234ZM869.043,46.298C868.858,45.117 868.463,44.228 867.859,43.631C867.254,43.034 866.454,42.728 865.459,42.714C864.719,42.714 864.072,42.884 863.518,43.226C862.963,43.567 862.504,44.022 862.142,44.591C861.779,45.16 861.509,45.807 861.331,46.532C861.153,47.258 861.064,48.004 861.064,48.772C861.064,49.995 861.238,51.08 861.587,52.026C861.935,52.971 862.444,53.714 863.112,54.255C863.781,54.795 864.591,55.066 865.544,55.066C866.44,55.066 867.329,54.834 868.211,54.372C869.093,53.91 869.832,53.266 870.43,52.442L871.454,53.38C870.757,54.333 870.024,55.055 869.256,55.546C868.488,56.036 867.738,56.367 867.006,56.538C866.273,56.708 865.615,56.794 865.032,56.794C863.937,56.794 862.942,56.598 862.046,56.207C861.15,55.816 860.378,55.275 859.731,54.586C859.084,53.896 858.586,53.092 858.238,52.175C857.889,51.258 857.715,50.266 857.715,49.199C857.715,48.232 857.871,47.272 858.184,46.319C858.497,45.366 858.963,44.502 859.582,43.727C860.2,42.952 860.979,42.333 861.918,41.871C862.856,41.409 863.944,41.178 865.182,41.178C865.736,41.178 866.344,41.266 867.006,41.444C867.667,41.622 868.289,41.882 868.872,42.223L868.787,41.327L870.43,41.327L870.43,46.298L869.043,46.298ZM872.392,55.066C872.79,55.066 873.078,54.987 873.256,54.831C873.434,54.674 873.544,54.45 873.587,54.159C873.63,53.867 873.651,53.537 873.651,53.167L873.651,44.399C873.651,44.143 873.658,43.848 873.672,43.514C873.686,43.179 873.708,42.856 873.736,42.543C873.509,42.557 873.242,42.568 872.936,42.575C872.63,42.582 872.399,42.593 872.243,42.607L872.243,40.986C872.911,40.986 873.47,40.95 873.918,40.879C874.366,40.808 874.721,40.722 874.984,40.623C875.247,40.523 875.429,40.431 875.528,40.346L876.68,40.346L876.68,53.018C876.68,53.217 876.673,53.498 876.659,53.86C876.645,54.223 876.623,54.568 876.595,54.895C876.837,54.866 877.093,54.849 877.363,54.842C877.633,54.834 877.839,54.831 877.982,54.831L877.982,56.452L872.392,56.452L872.392,55.066ZM884.659,56.794C883.621,56.794 882.703,56.562 881.907,56.1C881.11,55.638 880.492,54.984 880.051,54.138C879.61,53.291 879.39,52.292 879.39,51.14C879.39,50.145 879.61,49.213 880.051,48.346C880.492,47.478 881.114,46.778 881.918,46.244C882.721,45.711 883.656,45.444 884.723,45.444C885.32,45.444 885.903,45.526 886.472,45.69C887.041,45.853 887.557,46.134 888.019,46.532C888.481,46.93 888.851,47.471 889.128,48.154C889.406,48.836 889.537,49.69 889.523,50.714L882.526,50.842C882.526,51.61 882.622,52.299 882.814,52.911C883.006,53.522 883.322,54.006 883.763,54.362C884.204,54.717 884.794,54.895 885.534,54.895C885.818,54.895 886.142,54.845 886.504,54.746C886.867,54.646 887.237,54.479 887.614,54.244C887.99,54.01 888.342,53.693 888.67,53.295L889.63,54.191C889.118,54.916 888.57,55.467 887.987,55.844C887.404,56.221 886.824,56.474 886.248,56.602C885.672,56.73 885.142,56.794 884.659,56.794ZM882.654,49.348L886.579,49.348C886.565,48.751 886.483,48.278 886.334,47.93C886.184,47.581 885.982,47.329 885.726,47.172C885.47,47.016 885.171,46.938 884.83,46.938C884.204,46.938 883.713,47.162 883.358,47.61C883.002,48.058 882.767,48.637 882.654,49.348ZM891.294,55.066C891.692,55.066 891.976,54.987 892.147,54.831C892.318,54.674 892.428,54.45 892.478,54.159C892.527,53.867 892.552,53.537 892.552,53.167L892.552,49.583C892.552,49.327 892.559,49.039 892.574,48.719C892.588,48.399 892.609,48.082 892.638,47.77C892.41,47.784 892.143,47.794 891.838,47.802C891.532,47.809 891.301,47.819 891.144,47.834L891.144,46.212L891.998,46.212C892.552,46.212 893.061,46.141 893.523,45.999C893.985,45.857 894.287,45.714 894.43,45.572L895.475,45.572C895.503,45.714 895.525,45.981 895.539,46.372C895.553,46.763 895.56,47.108 895.56,47.407C895.944,46.938 896.307,46.561 896.648,46.276C896.99,45.992 897.327,45.782 897.662,45.647C897.996,45.512 898.334,45.444 898.675,45.444C899.173,45.444 899.606,45.583 899.976,45.86C900.346,46.138 900.531,46.589 900.531,47.215C900.531,47.428 900.481,47.652 900.382,47.887C900.282,48.122 900.126,48.317 899.912,48.474C899.699,48.63 899.407,48.708 899.038,48.708C898.753,48.708 898.462,48.623 898.163,48.452C897.864,48.282 897.694,47.954 897.651,47.471C897.366,47.471 897.082,47.588 896.798,47.823C896.513,48.058 896.261,48.335 896.04,48.655C895.82,48.975 895.667,49.27 895.582,49.54L895.582,53.018C895.582,53.217 895.574,53.498 895.56,53.86C895.546,54.223 895.525,54.568 895.496,54.895C895.724,54.866 895.976,54.849 896.254,54.842C896.531,54.834 896.741,54.831 896.883,54.831L896.883,56.452L891.294,56.452L891.294,55.066ZM901.214,56.452L901.214,55.066C901.612,55.066 901.9,54.987 902.078,54.831C902.255,54.674 902.369,54.45 902.419,54.159C902.469,53.867 902.494,53.537 902.494,53.167L902.494,44.399C902.494,44.143 902.501,43.848 902.515,43.514C902.529,43.179 902.55,42.856 902.579,42.543C902.351,42.557 902.085,42.568 901.779,42.575C901.473,42.582 901.242,42.593 901.086,42.607L901.086,40.986C901.74,40.986 902.291,40.95 902.739,40.879C903.187,40.808 903.546,40.722 903.816,40.623C904.086,40.523 904.264,40.431 904.35,40.346L905.523,40.346L905.523,50.074L906.547,50.074L908.083,48.303C908.268,48.104 908.421,47.933 908.542,47.791C908.662,47.649 908.787,47.521 908.915,47.407L907.784,47.407L907.784,45.786L912.584,45.786L912.584,47.151C912.086,47.208 911.646,47.325 911.262,47.503C910.878,47.681 910.547,47.89 910.27,48.132C909.992,48.374 909.754,48.609 909.555,48.836L908.19,50.372C908.403,50.472 908.613,50.618 908.819,50.81C909.025,51.002 909.278,51.297 909.576,51.695L911.006,53.572C911.091,53.672 911.201,53.807 911.336,53.978C911.471,54.148 911.624,54.315 911.795,54.479C911.966,54.642 912.15,54.781 912.35,54.895C912.549,55.009 912.755,55.066 912.968,55.066L912.968,56.452L910.515,56.452C910.06,56.452 909.662,56.292 909.32,55.972C908.979,55.652 908.588,55.194 908.147,54.596C907.891,54.255 907.624,53.889 907.347,53.498C907.07,53.106 906.814,52.737 906.579,52.388C906.344,52.04 906.156,51.766 906.014,51.567L905.523,51.588L905.523,53.018C905.523,53.217 905.516,53.498 905.502,53.86C905.487,54.223 905.466,54.568 905.438,54.895C905.665,54.866 905.914,54.849 906.184,54.842C906.454,54.834 906.668,54.831 906.824,54.831L906.824,56.452L901.214,56.452ZM915.55,47.151L914.718,46.554C914.874,46.354 915.048,46.07 915.24,45.7C915.432,45.33 915.599,44.922 915.742,44.474C915.884,44.026 915.948,43.595 915.934,43.183C915.834,43.211 915.752,43.229 915.688,43.236C915.624,43.243 915.557,43.247 915.486,43.247C915.102,43.247 914.76,43.133 914.462,42.906C914.163,42.678 914.014,42.322 914.014,41.839C914.014,41.412 914.152,41.039 914.43,40.719C914.707,40.399 915.08,40.239 915.55,40.239C916.204,40.225 916.694,40.434 917.022,40.868C917.349,41.302 917.512,41.839 917.512,42.479C917.512,42.934 917.441,43.418 917.299,43.93C917.157,44.442 916.94,44.968 916.648,45.508C916.357,46.049 915.99,46.596 915.55,47.151ZM923.656,56.794C923.045,56.794 922.447,56.715 921.864,56.559C921.281,56.402 920.826,56.203 920.499,55.962L920.542,56.602L918.92,56.602L918.835,52.932L920.222,52.932C920.264,53.359 920.435,53.75 920.734,54.106C921.032,54.461 921.423,54.742 921.907,54.948C922.39,55.154 922.931,55.258 923.528,55.258C923.77,55.258 924.001,55.222 924.222,55.151C924.442,55.08 924.627,54.962 924.776,54.799C924.926,54.635 925,54.433 925,54.191C925,53.921 924.904,53.7 924.712,53.53C924.52,53.359 924.243,53.195 923.88,53.039C923.518,52.882 923.066,52.705 922.526,52.506C922.085,52.335 921.64,52.157 921.192,51.972C920.744,51.787 920.332,51.563 919.955,51.3C919.578,51.037 919.276,50.71 919.048,50.319C918.821,49.928 918.707,49.448 918.707,48.879C918.707,48.466 918.785,48.058 918.942,47.652C919.098,47.247 919.34,46.877 919.667,46.543C919.994,46.209 920.41,45.942 920.915,45.743C921.42,45.544 922.021,45.444 922.718,45.444C923.102,45.444 923.539,45.505 924.03,45.626C924.52,45.746 924.936,45.928 925.278,46.17L925.278,45.551L926.899,45.551L926.899,49.327L925.512,49.327C925.427,48.829 925.253,48.402 924.99,48.047C924.726,47.691 924.389,47.418 923.976,47.226C923.564,47.034 923.102,46.938 922.59,46.938C922.234,46.938 921.91,47.023 921.619,47.194C921.327,47.364 921.182,47.656 921.182,48.068C921.182,48.395 921.295,48.655 921.523,48.847C921.75,49.039 922.063,49.199 922.462,49.327C922.86,49.455 923.301,49.604 923.784,49.775C924.51,50.017 925.153,50.301 925.715,50.628C926.277,50.955 926.721,51.35 927.048,51.812C927.375,52.274 927.539,52.84 927.539,53.508C927.539,54.248 927.354,54.859 926.984,55.343C926.614,55.826 926.134,56.189 925.544,56.431C924.954,56.673 924.325,56.794 923.656,56.794ZM942.254,56.794C940.902,56.794 939.754,56.566 938.808,56.111C937.862,55.656 937.098,55.048 936.515,54.287C935.932,53.526 935.505,52.683 935.235,51.759C934.965,50.834 934.83,49.91 934.83,48.986C934.83,48.09 934.982,47.183 935.288,46.266C935.594,45.348 936.056,44.506 936.675,43.738C937.294,42.97 938.072,42.351 939.011,41.882C939.95,41.412 941.052,41.178 942.318,41.178C943.612,41.178 944.728,41.412 945.667,41.882C946.606,42.351 947.374,42.973 947.971,43.748C948.568,44.523 949.013,45.366 949.304,46.276C949.596,47.186 949.742,48.09 949.742,48.986C949.742,49.867 949.589,50.763 949.283,51.674C948.977,52.584 948.515,53.426 947.896,54.202C947.278,54.977 946.499,55.602 945.56,56.079C944.622,56.555 943.519,56.794 942.254,56.794ZM942.488,55.236C943.228,55.236 943.846,55.055 944.344,54.692C944.842,54.33 945.24,53.857 945.539,53.274C945.838,52.69 946.051,52.054 946.179,51.364C946.307,50.674 946.371,50.002 946.371,49.348C946.371,48.367 946.286,47.471 946.115,46.66C945.944,45.85 945.681,45.149 945.326,44.559C944.97,43.969 944.518,43.514 943.971,43.194C943.423,42.874 942.78,42.721 942.04,42.735C941.315,42.749 940.703,42.945 940.206,43.322C939.708,43.698 939.31,44.182 939.011,44.772C938.712,45.362 938.499,46.006 938.371,46.703C938.243,47.4 938.179,48.075 938.179,48.73C938.179,49.398 938.254,50.109 938.403,50.863C938.552,51.617 938.79,52.328 939.118,52.996C939.445,53.665 939.886,54.205 940.44,54.618C940.995,55.03 941.678,55.236 942.488,55.236ZM952.899,45.167C952.899,43.446 953.276,42.212 954.03,41.466C954.783,40.719 955.8,40.346 957.08,40.346C957.749,40.346 958.282,40.442 958.68,40.634C959.078,40.826 959.363,41.064 959.534,41.348C959.704,41.633 959.79,41.924 959.79,42.223C959.79,42.593 959.676,42.92 959.448,43.204C959.221,43.489 958.894,43.638 958.467,43.652C958.054,43.666 957.734,43.556 957.507,43.322C957.279,43.087 957.166,42.792 957.166,42.436C957.166,42.365 957.169,42.294 957.176,42.223C957.183,42.152 957.194,42.081 957.208,42.01C957.137,41.938 957.055,41.892 956.963,41.871C956.87,41.85 956.789,41.839 956.718,41.839C956.49,41.839 956.312,41.906 956.184,42.042C956.056,42.177 955.971,42.344 955.928,42.543C955.886,42.742 955.864,42.948 955.864,43.162L955.864,45.786L958.254,45.786L958.254,47.428L955.886,47.492L955.907,52.975C955.907,53.174 955.9,53.462 955.886,53.839C955.871,54.216 955.85,54.568 955.822,54.895C956.063,54.866 956.337,54.849 956.643,54.842C956.949,54.834 957.173,54.831 957.315,54.831L957.315,56.452L951.619,56.452L951.619,55.066C952.017,55.066 952.305,54.987 952.483,54.831C952.661,54.674 952.774,54.45 952.824,54.159C952.874,53.867 952.899,53.537 952.899,53.167L952.899,47.535L951.342,47.556L951.342,45.786L952.899,45.786L952.899,45.167ZM959.704,56.452L959.704,55.066C960.102,55.066 960.39,54.987 960.568,54.831C960.746,54.674 960.86,54.45 960.91,54.159C960.959,53.867 960.984,53.537 960.984,53.167L960.984,47.535L959.427,47.556L959.427,45.786L960.984,45.786C961.07,43.823 961.525,42.426 962.35,41.594C963.174,40.762 964.419,40.346 966.083,40.346C967.32,40.346 968.309,40.495 969.048,40.794C969.788,41.092 970.321,41.437 970.648,41.828C970.975,42.219 971.132,42.55 971.118,42.82C971.118,43.133 971.011,43.45 970.798,43.77C970.584,44.09 970.257,44.257 969.816,44.271C969.418,44.285 969.091,44.168 968.835,43.919C968.579,43.67 968.451,43.361 968.451,42.991C968.451,42.92 968.458,42.845 968.472,42.767C968.486,42.689 968.501,42.614 968.515,42.543C968.458,42.472 968.277,42.34 967.971,42.148C967.665,41.956 967.178,41.86 966.51,41.86C965.713,41.86 965.134,42.027 964.771,42.362C964.408,42.696 964.181,43.122 964.088,43.642C963.996,44.161 963.95,44.705 963.95,45.274L963.95,45.786L967.64,45.786C968.266,45.786 968.799,45.771 969.24,45.743C969.681,45.714 969.951,45.658 970.051,45.572L971.203,45.572L971.203,53.018C971.203,53.217 971.196,53.498 971.182,53.86C971.167,54.223 971.146,54.568 971.118,54.895C971.359,54.866 971.615,54.849 971.886,54.842C972.156,54.834 972.362,54.831 972.504,54.831L972.504,56.452L966.915,56.452L966.915,55.066C967.313,55.066 967.601,54.987 967.779,54.831C967.957,54.674 968.067,54.45 968.11,54.159C968.152,53.867 968.174,53.537 968.174,53.167L968.174,49.22C968.174,48.964 968.181,48.669 968.195,48.335C968.209,48.001 968.23,47.677 968.259,47.364L963.971,47.471L963.992,52.975C963.992,53.174 963.985,53.462 963.971,53.839C963.957,54.216 963.935,54.568 963.907,54.895C964.149,54.866 964.422,54.849 964.728,54.842C965.034,54.834 965.258,54.831 965.4,54.831L965.4,56.452L959.704,56.452ZM979.139,56.794C978.186,56.794 977.311,56.58 976.515,56.154C975.718,55.727 975.082,55.108 974.606,54.298C974.129,53.487 973.891,52.506 973.891,51.354C973.891,50.543 974.026,49.782 974.296,49.071C974.566,48.36 974.947,47.734 975.438,47.194C975.928,46.653 976.511,46.226 977.187,45.914C977.862,45.601 978.613,45.444 979.438,45.444C980.348,45.444 981.105,45.583 981.71,45.86C982.314,46.138 982.769,46.5 983.075,46.948C983.381,47.396 983.534,47.869 983.534,48.367C983.534,48.779 983.409,49.146 983.16,49.466C982.911,49.786 982.559,49.953 982.104,49.967C981.564,49.981 981.187,49.828 980.974,49.508C980.76,49.188 980.654,48.879 980.654,48.58C980.654,48.452 980.675,48.299 980.718,48.122C980.76,47.944 980.824,47.784 980.91,47.642C980.81,47.428 980.661,47.272 980.462,47.172C980.262,47.073 980.06,47.005 979.854,46.97C979.647,46.934 979.48,46.923 979.352,46.938C978.67,46.98 978.108,47.322 977.667,47.962C977.226,48.602 977.006,49.526 977.006,50.735C977.006,51.446 977.094,52.111 977.272,52.73C977.45,53.348 977.745,53.857 978.158,54.255C978.57,54.653 979.125,54.866 979.822,54.895C980.419,54.909 981.002,54.767 981.571,54.468C982.14,54.17 982.623,53.764 983.022,53.252L984.003,54.212C983.491,54.923 982.958,55.464 982.403,55.834C981.848,56.203 981.297,56.456 980.75,56.591C980.202,56.726 979.665,56.794 979.139,56.794ZM742.462,72.312L742.462,73.012L674.462,73.012L674.462,72.312L742.462,72.312ZM995.565,72.312L995.565,73.012L927.565,73.012L927.565,72.312L995.565,72.312ZM756.493,67.655C757.594,67.646 758.451,67.846 759.062,68.257C759.673,68.668 759.937,69.298 759.853,70.147C759.825,70.427 759.729,70.702 759.566,70.973C759.403,71.244 759.165,71.486 758.852,71.701C758.539,71.916 758.15,72.079 757.683,72.191L757.683,72.205C758.635,72.308 759.326,72.595 759.755,73.066C760.184,73.537 760.385,74.086 760.357,74.711C760.329,75.308 760.159,75.812 759.846,76.223C759.533,76.634 759.123,76.946 758.614,77.161C758.105,77.376 757.524,77.483 756.871,77.483L752.377,77.483L752.419,76.713C752.671,76.704 752.872,76.657 753.021,76.573C753.17,76.489 753.278,76.347 753.343,76.146C753.408,75.945 753.45,75.663 753.469,75.299L753.763,69.769C753.782,69.517 753.8,69.284 753.819,69.069C753.838,68.854 753.856,68.686 753.875,68.565C753.726,68.574 753.546,68.581 753.336,68.586C753.126,68.591 752.96,68.598 752.839,68.607L752.895,67.683C753.492,67.674 754.087,67.669 754.68,67.669C755.273,67.669 755.877,67.664 756.493,67.655ZM756.451,68.481C756.246,68.481 756.075,68.509 755.94,68.565C755.805,68.621 755.7,68.738 755.625,68.915C755.55,69.092 755.504,69.358 755.485,69.713L755.359,72.023C755.499,72.023 755.639,72.021 755.779,72.016C755.919,72.011 756.054,72.009 756.185,72.009C756.633,71.99 756.99,71.892 757.256,71.715C757.522,71.538 757.718,71.302 757.844,71.008C757.97,70.714 758.038,70.394 758.047,70.049C758.066,69.638 757.996,69.319 757.837,69.09C757.678,68.861 757.473,68.7 757.221,68.607C756.969,68.514 756.712,68.472 756.451,68.481ZM756.549,72.849L755.898,72.849C755.707,72.849 755.513,72.858 755.317,72.877L755.191,75.439C755.182,75.691 755.163,75.922 755.135,76.132C755.107,76.342 755.084,76.508 755.065,76.629C755.233,76.629 755.401,76.631 755.569,76.636C755.737,76.641 755.9,76.641 756.059,76.636C756.218,76.631 756.358,76.629 756.479,76.629C757.095,76.61 757.573,76.431 757.914,76.09C758.255,75.749 758.439,75.29 758.467,74.711C758.495,74.244 758.42,73.873 758.243,73.598C758.066,73.323 757.828,73.129 757.529,73.017C757.23,72.905 756.904,72.849 756.549,72.849ZM762.555,77.483C762.536,77.334 762.527,77.224 762.527,77.154L762.527,76.909C762.527,76.732 762.536,76.515 762.555,76.258C762.574,76.001 762.599,75.705 762.632,75.369C762.665,75.033 762.704,74.664 762.751,74.263C762.807,73.843 762.856,73.479 762.898,73.171C762.94,72.863 762.97,72.609 762.989,72.408C763.008,72.207 763.017,72.051 763.017,71.939C763.026,71.771 763.01,71.645 762.968,71.561C762.926,71.477 762.858,71.435 762.765,71.435C762.644,71.435 762.513,71.521 762.373,71.694C762.233,71.867 762.102,72.177 761.981,72.625L761.337,72.443C761.374,72.256 761.435,72.042 761.519,71.799C761.603,71.556 761.72,71.323 761.869,71.099C762.018,70.875 762.2,70.691 762.415,70.546C762.63,70.401 762.886,70.329 763.185,70.329C763.53,70.329 763.806,70.436 764.011,70.651C764.216,70.866 764.319,71.22 764.319,71.715C764.31,71.883 764.291,72.077 764.263,72.296C764.235,72.515 764.198,72.76 764.151,73.031L764.179,73.031C764.431,72.284 764.695,71.717 764.97,71.33C765.245,70.943 765.521,70.679 765.796,70.539C766.071,70.399 766.335,70.329 766.587,70.329C766.914,70.329 767.18,70.418 767.385,70.595C767.59,70.772 767.693,71.01 767.693,71.309C767.693,71.524 767.616,71.72 767.462,71.897C767.308,72.074 767.105,72.163 766.853,72.163C766.666,72.163 766.498,72.102 766.349,71.981C766.2,71.86 766.125,71.696 766.125,71.491C765.938,71.454 765.749,71.54 765.558,71.75C765.367,71.96 765.185,72.252 765.012,72.625C764.839,72.998 764.688,73.414 764.557,73.871C764.426,74.328 764.321,74.795 764.242,75.271C764.163,75.747 764.123,76.195 764.123,76.615C764.123,76.736 764.128,76.883 764.137,77.056C764.146,77.229 764.156,77.371 764.165,77.483L762.555,77.483ZM770.129,70.329C770.586,70.329 770.911,70.471 771.102,70.756C771.293,71.041 771.389,71.421 771.389,71.897C771.389,72.14 771.366,72.448 771.319,72.821C771.272,73.194 771.219,73.591 771.158,74.011C771.097,74.431 771.041,74.825 770.99,75.194C770.939,75.563 770.913,75.864 770.913,76.097C770.913,76.256 770.941,76.368 770.997,76.433C771.053,76.498 771.123,76.531 771.207,76.531C771.328,76.531 771.459,76.445 771.599,76.272C771.739,76.099 771.874,75.789 772.005,75.341L772.635,75.523C772.598,75.719 772.528,75.938 772.425,76.181C772.322,76.424 772.189,76.655 772.026,76.874C771.863,77.093 771.664,77.275 771.431,77.42C771.198,77.565 770.932,77.637 770.633,77.637C770.148,77.637 769.807,77.506 769.611,77.245C769.415,76.984 769.317,76.615 769.317,76.139C769.317,75.822 769.343,75.474 769.394,75.096C769.445,74.718 769.504,74.335 769.569,73.948C769.634,73.561 769.69,73.19 769.737,72.835C769.784,72.48 769.807,72.163 769.807,71.883C769.807,71.734 769.784,71.622 769.737,71.547C769.69,71.472 769.62,71.435 769.527,71.435C769.415,71.435 769.289,71.521 769.149,71.694C769.009,71.867 768.874,72.177 768.743,72.625L768.113,72.443C768.141,72.256 768.206,72.042 768.309,71.799C768.412,71.556 768.549,71.323 768.722,71.099C768.895,70.875 769.098,70.691 769.331,70.546C769.564,70.401 769.83,70.329 770.129,70.329ZM770.731,66.969C771.002,66.969 771.226,67.067 771.403,67.263C771.58,67.459 771.66,67.706 771.641,68.005C771.641,68.294 771.548,68.537 771.361,68.733C771.174,68.929 770.941,69.027 770.661,69.027C770.381,69.027 770.155,68.929 769.982,68.733C769.809,68.537 769.723,68.294 769.723,68.005C769.742,67.706 769.849,67.459 770.045,67.263C770.241,67.067 770.47,66.969 770.731,66.969ZM779.635,77.637C779.14,77.637 778.807,77.504 778.634,77.238C778.461,76.972 778.375,76.606 778.375,76.139C778.375,75.859 778.394,75.544 778.431,75.194C778.468,74.844 778.513,74.48 778.564,74.102C778.615,73.724 778.66,73.36 778.697,73.01C778.734,72.66 778.753,72.35 778.753,72.079C778.753,71.948 778.739,71.832 778.711,71.729C778.683,71.626 778.634,71.547 778.564,71.491C778.494,71.435 778.398,71.407 778.277,71.407C778.072,71.407 777.866,71.517 777.661,71.736C777.456,71.955 777.257,72.249 777.066,72.618C776.875,72.987 776.704,73.395 776.555,73.843C776.406,74.291 776.287,74.751 776.198,75.222C776.109,75.693 776.065,76.139 776.065,76.559C776.065,76.69 776.07,76.848 776.079,77.035C776.088,77.222 776.098,77.371 776.107,77.483L774.511,77.483C774.492,77.334 774.481,77.224 774.476,77.154C774.471,77.084 774.469,77.002 774.469,76.909C774.469,76.732 774.481,76.519 774.504,76.272C774.527,76.025 774.558,75.738 774.595,75.411C774.632,75.084 774.674,74.72 774.721,74.319C774.768,73.964 774.807,73.656 774.84,73.395C774.873,73.134 774.901,72.907 774.924,72.716C774.947,72.525 774.964,72.361 774.973,72.226C774.982,72.091 774.987,71.976 774.987,71.883C774.987,71.724 774.966,71.61 774.924,71.54C774.882,71.47 774.819,71.435 774.735,71.435C774.614,71.435 774.483,71.521 774.343,71.694C774.203,71.867 774.072,72.177 773.951,72.625L773.307,72.443C773.344,72.256 773.405,72.042 773.489,71.799C773.573,71.556 773.69,71.323 773.839,71.099C773.988,70.875 774.17,70.691 774.385,70.546C774.6,70.401 774.856,70.329 775.155,70.329C775.398,70.329 775.605,70.383 775.778,70.49C775.951,70.597 776.081,70.756 776.17,70.966C776.259,71.176 776.298,71.444 776.289,71.771C776.28,71.976 776.263,72.158 776.24,72.317C776.217,72.476 776.191,72.639 776.163,72.807L776.191,72.807C776.443,72.144 776.709,71.633 776.989,71.274C777.269,70.915 777.554,70.667 777.843,70.532C778.132,70.397 778.417,70.329 778.697,70.329C779.089,70.329 779.404,70.415 779.642,70.588C779.88,70.761 780.055,71.001 780.167,71.309C780.279,71.617 780.335,71.972 780.335,72.373C780.335,72.765 780.305,73.187 780.244,73.64C780.183,74.093 780.12,74.531 780.055,74.956C779.99,75.381 779.957,75.756 779.957,76.083C779.957,76.232 779.98,76.344 780.027,76.419C780.074,76.494 780.139,76.531 780.223,76.531C780.344,76.531 780.475,76.445 780.615,76.272C780.755,76.099 780.886,75.789 781.007,75.341L781.651,75.523C781.614,75.71 781.544,75.924 781.441,76.167C781.338,76.41 781.203,76.643 781.035,76.867C780.867,77.091 780.666,77.275 780.433,77.42C780.2,77.565 779.934,77.637 779.635,77.637ZM784.633,81.277C784.353,81.277 784.08,81.251 783.814,81.2C783.548,81.149 783.312,81.067 783.107,80.955C782.902,80.843 782.738,80.701 782.617,80.528C782.496,80.355 782.43,80.152 782.421,79.919C782.421,79.788 782.454,79.651 782.519,79.506C782.584,79.361 782.678,79.242 782.799,79.149C782.92,79.056 783.079,79.009 783.275,79.009C783.499,79.009 783.688,79.079 783.842,79.219C783.996,79.359 784.073,79.555 784.073,79.807C784.073,79.947 784.045,80.082 783.989,80.213C784.045,80.297 784.155,80.365 784.318,80.416C784.481,80.467 784.628,80.493 784.759,80.493C785.179,80.493 785.51,80.376 785.753,80.143C785.996,79.91 786.178,79.595 786.299,79.198C786.42,78.801 786.514,78.36 786.579,77.875C786.644,77.362 786.707,76.888 786.768,76.454C786.829,76.02 786.906,75.602 786.999,75.201L786.985,75.201C786.798,75.696 786.607,76.104 786.411,76.426C786.215,76.748 786.012,76.995 785.802,77.168C785.592,77.341 785.382,77.462 785.172,77.532C784.962,77.602 784.75,77.637 784.535,77.637C784.162,77.637 783.83,77.537 783.541,77.336C783.252,77.135 783.025,76.841 782.862,76.454C782.699,76.067 782.617,75.593 782.617,75.033C782.617,74.398 782.694,73.799 782.848,73.234C783.002,72.669 783.245,72.17 783.576,71.736C783.907,71.302 784.332,70.959 784.85,70.707C785.368,70.455 785.977,70.329 786.677,70.329C786.957,70.329 787.284,70.352 787.657,70.399C788.03,70.446 788.38,70.516 788.707,70.609C788.679,71.02 788.646,71.5 788.609,72.051C788.572,72.602 788.532,73.176 788.49,73.773C788.448,74.37 788.404,74.954 788.357,75.523C788.31,76.092 788.264,76.601 788.217,77.049C788.142,77.936 787.97,78.694 787.699,79.324C787.428,79.954 787.041,80.437 786.537,80.773C786.033,81.109 785.398,81.277 784.633,81.277ZM785.011,76.587C785.235,76.587 785.447,76.475 785.648,76.251C785.849,76.027 786.033,75.724 786.201,75.341C786.369,74.958 786.516,74.531 786.642,74.06C786.768,73.589 786.873,73.108 786.957,72.618C787.041,72.128 787.097,71.664 787.125,71.225C787.041,71.197 786.931,71.171 786.796,71.148C786.661,71.125 786.523,71.113 786.383,71.113C786,71.113 785.674,71.211 785.403,71.407C785.132,71.603 784.915,71.881 784.752,72.24C784.589,72.599 784.467,73.012 784.388,73.479C784.309,73.946 784.269,74.454 784.269,75.005C784.269,75.313 784.297,75.586 784.353,75.824C784.409,76.062 784.493,76.249 784.605,76.384C784.717,76.519 784.852,76.587 785.011,76.587ZM791.941,70.329C792.398,70.329 792.723,70.471 792.914,70.756C793.105,71.041 793.201,71.421 793.201,71.897C793.201,72.14 793.178,72.448 793.131,72.821C793.084,73.194 793.031,73.591 792.97,74.011C792.909,74.431 792.853,74.825 792.802,75.194C792.751,75.563 792.725,75.864 792.725,76.097C792.725,76.256 792.753,76.368 792.809,76.433C792.865,76.498 792.935,76.531 793.019,76.531C793.14,76.531 793.271,76.445 793.411,76.272C793.551,76.099 793.686,75.789 793.817,75.341L794.447,75.523C794.41,75.719 794.34,75.938 794.237,76.181C794.134,76.424 794.001,76.655 793.838,76.874C793.675,77.093 793.476,77.275 793.243,77.42C793.01,77.565 792.744,77.637 792.445,77.637C791.96,77.637 791.619,77.506 791.423,77.245C791.227,76.984 791.129,76.615 791.129,76.139C791.129,75.822 791.155,75.474 791.206,75.096C791.257,74.718 791.316,74.335 791.381,73.948C791.446,73.561 791.502,73.19 791.549,72.835C791.596,72.48 791.619,72.163 791.619,71.883C791.619,71.734 791.596,71.622 791.549,71.547C791.502,71.472 791.432,71.435 791.339,71.435C791.227,71.435 791.101,71.521 790.961,71.694C790.821,71.867 790.686,72.177 790.555,72.625L789.925,72.443C789.953,72.256 790.018,72.042 790.121,71.799C790.224,71.556 790.361,71.323 790.534,71.099C790.707,70.875 790.91,70.691 791.143,70.546C791.376,70.401 791.642,70.329 791.941,70.329ZM792.543,66.969C792.814,66.969 793.038,67.067 793.215,67.263C793.392,67.459 793.472,67.706 793.453,68.005C793.453,68.294 793.36,68.537 793.173,68.733C792.986,68.929 792.753,69.027 792.473,69.027C792.193,69.027 791.967,68.929 791.794,68.733C791.621,68.537 791.535,68.294 791.535,68.005C791.554,67.706 791.661,67.459 791.857,67.263C792.053,67.067 792.282,66.969 792.543,66.969ZM801.447,77.637C800.952,77.637 800.619,77.504 800.446,77.238C800.273,76.972 800.187,76.606 800.187,76.139C800.187,75.859 800.206,75.544 800.243,75.194C800.28,74.844 800.325,74.48 800.376,74.102C800.427,73.724 800.472,73.36 800.509,73.01C800.546,72.66 800.565,72.35 800.565,72.079C800.565,71.948 800.551,71.832 800.523,71.729C800.495,71.626 800.446,71.547 800.376,71.491C800.306,71.435 800.21,71.407 800.089,71.407C799.884,71.407 799.678,71.517 799.473,71.736C799.268,71.955 799.069,72.249 798.878,72.618C798.687,72.987 798.516,73.395 798.367,73.843C798.218,74.291 798.099,74.751 798.01,75.222C797.921,75.693 797.877,76.139 797.877,76.559C797.877,76.69 797.882,76.848 797.891,77.035C797.9,77.222 797.91,77.371 797.919,77.483L796.323,77.483C796.304,77.334 796.293,77.224 796.288,77.154C796.283,77.084 796.281,77.002 796.281,76.909C796.281,76.732 796.293,76.519 796.316,76.272C796.339,76.025 796.37,75.738 796.407,75.411C796.444,75.084 796.486,74.72 796.533,74.319C796.58,73.964 796.619,73.656 796.652,73.395C796.685,73.134 796.713,72.907 796.736,72.716C796.759,72.525 796.776,72.361 796.785,72.226C796.794,72.091 796.799,71.976 796.799,71.883C796.799,71.724 796.778,71.61 796.736,71.54C796.694,71.47 796.631,71.435 796.547,71.435C796.426,71.435 796.295,71.521 796.155,71.694C796.015,71.867 795.884,72.177 795.763,72.625L795.119,72.443C795.156,72.256 795.217,72.042 795.301,71.799C795.385,71.556 795.502,71.323 795.651,71.099C795.8,70.875 795.982,70.691 796.197,70.546C796.412,70.401 796.668,70.329 796.967,70.329C797.21,70.329 797.417,70.383 797.59,70.49C797.763,70.597 797.893,70.756 797.982,70.966C798.071,71.176 798.11,71.444 798.101,71.771C798.092,71.976 798.075,72.158 798.052,72.317C798.029,72.476 798.003,72.639 797.975,72.807L798.003,72.807C798.255,72.144 798.521,71.633 798.801,71.274C799.081,70.915 799.366,70.667 799.655,70.532C799.944,70.397 800.229,70.329 800.509,70.329C800.901,70.329 801.216,70.415 801.454,70.588C801.692,70.761 801.867,71.001 801.979,71.309C802.091,71.617 802.147,71.972 802.147,72.373C802.147,72.765 802.117,73.187 802.056,73.64C801.995,74.093 801.932,74.531 801.867,74.956C801.802,75.381 801.769,75.756 801.769,76.083C801.769,76.232 801.792,76.344 801.839,76.419C801.886,76.494 801.951,76.531 802.035,76.531C802.156,76.531 802.287,76.445 802.427,76.272C802.567,76.099 802.698,75.789 802.819,75.341L803.463,75.523C803.426,75.71 803.356,75.924 803.253,76.167C803.15,76.41 803.015,76.643 802.847,76.867C802.679,77.091 802.478,77.275 802.245,77.42C802.012,77.565 801.746,77.637 801.447,77.637ZM806.445,81.277C806.165,81.277 805.892,81.251 805.626,81.2C805.36,81.149 805.124,81.067 804.919,80.955C804.714,80.843 804.55,80.701 804.429,80.528C804.308,80.355 804.242,80.152 804.233,79.919C804.233,79.788 804.266,79.651 804.331,79.506C804.396,79.361 804.49,79.242 804.611,79.149C804.732,79.056 804.891,79.009 805.087,79.009C805.311,79.009 805.5,79.079 805.654,79.219C805.808,79.359 805.885,79.555 805.885,79.807C805.885,79.947 805.857,80.082 805.801,80.213C805.857,80.297 805.967,80.365 806.13,80.416C806.293,80.467 806.44,80.493 806.571,80.493C806.991,80.493 807.322,80.376 807.565,80.143C807.808,79.91 807.99,79.595 808.111,79.198C808.232,78.801 808.326,78.36 808.391,77.875C808.456,77.362 808.519,76.888 808.58,76.454C808.641,76.02 808.718,75.602 808.811,75.201L808.797,75.201C808.61,75.696 808.419,76.104 808.223,76.426C808.027,76.748 807.824,76.995 807.614,77.168C807.404,77.341 807.194,77.462 806.984,77.532C806.774,77.602 806.562,77.637 806.347,77.637C805.974,77.637 805.642,77.537 805.353,77.336C805.064,77.135 804.837,76.841 804.674,76.454C804.511,76.067 804.429,75.593 804.429,75.033C804.429,74.398 804.506,73.799 804.66,73.234C804.814,72.669 805.057,72.17 805.388,71.736C805.719,71.302 806.144,70.959 806.662,70.707C807.18,70.455 807.789,70.329 808.489,70.329C808.769,70.329 809.096,70.352 809.469,70.399C809.842,70.446 810.192,70.516 810.519,70.609C810.491,71.02 810.458,71.5 810.421,72.051C810.384,72.602 810.344,73.176 810.302,73.773C810.26,74.37 810.216,74.954 810.169,75.523C810.122,76.092 810.076,76.601 810.029,77.049C809.954,77.936 809.782,78.694 809.511,79.324C809.24,79.954 808.853,80.437 808.349,80.773C807.845,81.109 807.21,81.277 806.445,81.277ZM806.823,76.587C807.047,76.587 807.259,76.475 807.46,76.251C807.661,76.027 807.845,75.724 808.013,75.341C808.181,74.958 808.328,74.531 808.454,74.06C808.58,73.589 808.685,73.108 808.769,72.618C808.853,72.128 808.909,71.664 808.937,71.225C808.853,71.197 808.743,71.171 808.608,71.148C808.473,71.125 808.335,71.113 808.195,71.113C807.812,71.113 807.486,71.211 807.215,71.407C806.944,71.603 806.727,71.881 806.564,72.24C806.401,72.599 806.279,73.012 806.2,73.479C806.121,73.946 806.081,74.454 806.081,75.005C806.081,75.313 806.109,75.586 806.165,75.824C806.221,76.062 806.305,76.249 806.417,76.384C806.529,76.519 806.664,76.587 806.823,76.587ZM817.225,81.277C816.833,81.268 816.53,81.167 816.315,80.976C816.1,80.785 815.993,80.544 815.993,80.255C815.993,79.984 816.077,79.772 816.245,79.618C816.413,79.464 816.59,79.387 816.777,79.387C817.244,79.387 817.5,79.634 817.547,80.129C817.575,80.148 817.608,80.159 817.645,80.164C817.682,80.169 817.715,80.171 817.743,80.171C817.92,80.18 818.102,80.117 818.289,79.982C818.476,79.847 818.655,79.681 818.828,79.485C819.001,79.289 819.155,79.091 819.29,78.89C819.425,78.689 819.526,78.528 819.591,78.407C819.516,77.922 819.411,77.411 819.276,76.874C819.141,76.337 818.984,75.796 818.807,75.25C818.63,74.704 818.443,74.174 818.247,73.661C818.051,73.148 817.864,72.676 817.687,72.247C817.622,72.088 817.535,71.923 817.428,71.75C817.321,71.577 817.183,71.496 817.015,71.505C816.875,71.505 816.749,71.594 816.637,71.771C816.525,71.948 816.46,72.252 816.441,72.681L815.769,72.625C815.769,72.41 815.799,72.172 815.86,71.911C815.921,71.65 816.021,71.398 816.161,71.155C816.301,70.912 816.485,70.714 816.714,70.56C816.943,70.406 817.23,70.329 817.575,70.329C817.892,70.329 818.156,70.406 818.366,70.56C818.576,70.714 818.753,70.905 818.898,71.134C819.043,71.363 819.162,71.594 819.255,71.827C819.404,72.2 819.568,72.658 819.745,73.199C819.922,73.74 820.09,74.314 820.249,74.921C820.408,75.528 820.534,76.125 820.627,76.713L820.641,76.713C820.856,76.274 821.047,75.829 821.215,75.376C821.383,74.923 821.521,74.48 821.628,74.046C821.735,73.612 821.794,73.208 821.803,72.835C821.812,72.695 821.808,72.522 821.789,72.317C821.77,72.112 821.714,71.958 821.621,71.855C821.584,71.874 821.546,71.885 821.509,71.89C821.472,71.895 821.43,71.897 821.383,71.897C821.168,71.897 820.989,71.825 820.844,71.68C820.699,71.535 820.627,71.365 820.627,71.169C820.627,70.88 820.718,70.667 820.9,70.532C821.082,70.397 821.276,70.329 821.481,70.329C821.808,70.329 822.069,70.425 822.265,70.616C822.461,70.807 822.601,71.048 822.685,71.337C822.769,71.626 822.811,71.925 822.811,72.233C822.811,72.709 822.739,73.243 822.594,73.836C822.449,74.429 822.249,75.042 821.992,75.677C821.735,76.312 821.448,76.932 821.131,77.539C820.739,78.276 820.331,78.927 819.906,79.492C819.481,80.057 819.043,80.495 818.59,80.808C818.137,81.121 817.682,81.277 817.225,81.277ZM827.767,70.329C828.29,70.329 828.759,70.45 829.174,70.693C829.589,70.936 829.921,71.288 830.168,71.75C830.415,72.212 830.539,72.774 830.539,73.437C830.539,74.174 830.399,74.865 830.119,75.509C829.839,76.153 829.44,76.669 828.922,77.056C828.404,77.443 827.781,77.637 827.053,77.637C826.428,77.637 825.91,77.495 825.499,77.21C825.088,76.925 824.783,76.543 824.582,76.062C824.381,75.581 824.281,75.052 824.281,74.473C824.281,73.726 824.421,73.038 824.701,72.408C824.981,71.778 825.382,71.274 825.905,70.896C826.428,70.518 827.048,70.329 827.767,70.329ZM827.557,71.113C827.24,71.104 826.96,71.232 826.717,71.498C826.474,71.764 826.288,72.121 826.157,72.569C826.026,73.017 825.961,73.512 825.961,74.053C825.952,74.352 825.966,74.662 826.003,74.984C826.04,75.306 826.108,75.607 826.206,75.887C826.304,76.167 826.437,76.396 826.605,76.573C826.773,76.75 826.983,76.839 827.235,76.839C827.524,76.848 827.769,76.755 827.97,76.559C828.171,76.363 828.332,76.111 828.453,75.803C828.574,75.495 828.665,75.168 828.726,74.823C828.787,74.478 828.822,74.151 828.831,73.843C828.84,73.572 828.829,73.278 828.796,72.961C828.763,72.644 828.703,72.345 828.614,72.065C828.525,71.785 828.395,71.559 828.222,71.386C828.049,71.213 827.828,71.122 827.557,71.113ZM834.431,77.637C834.048,77.637 833.736,77.551 833.493,77.378C833.25,77.205 833.075,76.965 832.968,76.657C832.861,76.349 832.807,75.994 832.807,75.593C832.807,75.192 832.84,74.765 832.905,74.312C832.97,73.859 833.036,73.421 833.101,72.996C833.166,72.571 833.199,72.205 833.199,71.897C833.199,71.729 833.173,71.61 833.122,71.54C833.071,71.47 833.003,71.435 832.919,71.435C832.798,71.435 832.669,71.521 832.534,71.694C832.399,71.867 832.27,72.177 832.149,72.625L831.505,72.443C831.542,72.256 831.61,72.042 831.708,71.799C831.806,71.556 831.939,71.323 832.107,71.099C832.275,70.875 832.476,70.691 832.709,70.546C832.942,70.401 833.208,70.329 833.507,70.329C833.983,70.329 834.314,70.462 834.501,70.728C834.688,70.994 834.781,71.365 834.781,71.841C834.781,72.112 834.76,72.427 834.718,72.786C834.676,73.145 834.629,73.516 834.578,73.899C834.527,74.282 834.48,74.646 834.438,74.991C834.396,75.336 834.375,75.63 834.375,75.873C834.375,76.004 834.391,76.12 834.424,76.223C834.457,76.326 834.508,76.407 834.578,76.468C834.648,76.529 834.744,76.559 834.865,76.559C835.052,76.559 835.245,76.449 835.446,76.23C835.647,76.011 835.838,75.717 836.02,75.348C836.202,74.979 836.365,74.571 836.51,74.123C836.655,73.675 836.769,73.215 836.853,72.744C836.937,72.273 836.979,71.827 836.979,71.407C836.979,71.267 836.977,71.106 836.972,70.924C836.967,70.742 836.96,70.595 836.951,70.483L838.547,70.483C838.556,70.632 838.563,70.742 838.568,70.812C838.573,70.882 838.575,70.964 838.575,71.057C838.575,71.234 838.563,71.451 838.54,71.708C838.517,71.965 838.486,72.259 838.449,72.59C838.412,72.921 838.365,73.292 838.309,73.703C838.272,74.048 838.237,74.352 838.204,74.613C838.171,74.874 838.143,75.096 838.12,75.278C838.097,75.46 838.078,75.616 838.064,75.747C838.05,75.878 838.043,75.99 838.043,76.083C838.043,76.242 838.066,76.356 838.113,76.426C838.16,76.496 838.225,76.531 838.309,76.531C838.43,76.531 838.559,76.445 838.694,76.272C838.829,76.099 838.962,75.789 839.093,75.341L839.723,75.523C839.695,75.71 839.637,75.924 839.548,76.167C839.459,76.41 839.34,76.643 839.191,76.867C839.042,77.091 838.86,77.275 838.645,77.42C838.43,77.565 838.174,77.637 837.875,77.637C837.558,77.637 837.289,77.539 837.07,77.343C836.851,77.147 836.741,76.82 836.741,76.363C836.741,76.148 836.755,75.945 836.783,75.754C836.811,75.563 836.839,75.355 836.867,75.131L836.839,75.131C836.596,75.794 836.342,76.305 836.076,76.664C835.81,77.023 835.539,77.275 835.264,77.42C834.989,77.565 834.711,77.637 834.431,77.637ZM853.401,67.683L853.345,68.607C853.028,68.616 852.748,68.733 852.505,68.957C852.262,69.181 852.024,69.564 851.791,70.105C851.614,70.516 851.436,70.929 851.259,71.344L849.663,75.082C849.486,75.497 849.308,75.91 849.131,76.321C848.954,76.732 848.776,77.147 848.599,77.567L847.507,77.567L844.665,70.049C844.581,69.816 844.504,69.573 844.434,69.321C844.364,69.069 844.334,68.868 844.343,68.719C844.194,68.728 844.056,68.735 843.93,68.74C843.804,68.745 843.69,68.752 843.587,68.761L843.643,67.683L847.717,67.683L847.675,68.607C847.33,68.598 847.061,68.672 846.87,68.831C846.679,68.99 846.658,69.274 846.807,69.685L847.927,72.849C848.067,73.241 848.186,73.586 848.284,73.885C848.382,74.184 848.492,74.51 848.613,74.865L848.627,74.865C848.748,74.594 848.877,74.282 849.012,73.927C849.147,73.572 849.28,73.236 849.411,72.919C849.551,72.592 849.689,72.266 849.824,71.939C849.959,71.612 850.095,71.288 850.23,70.966C850.365,70.644 850.498,70.32 850.629,69.993C850.788,69.61 850.914,69.323 851.007,69.132C851.1,68.941 851.189,68.798 851.273,68.705C851.124,68.714 850.932,68.724 850.699,68.733C850.466,68.742 850.298,68.752 850.195,68.761L850.237,67.683L853.401,67.683ZM858.469,67.683L858.427,68.607C858.222,68.616 858.042,68.644 857.888,68.691C857.734,68.738 857.613,68.843 857.524,69.006C857.435,69.169 857.382,69.442 857.363,69.825L857.083,75.187C857.074,75.439 857.057,75.682 857.034,75.915C857.011,76.148 856.99,76.326 856.971,76.447C857.12,76.428 857.309,76.417 857.538,76.412C857.767,76.407 857.928,76.405 858.021,76.405L857.965,77.483L853.975,77.483L854.031,76.559C854.236,76.55 854.414,76.522 854.563,76.475C854.712,76.428 854.831,76.321 854.92,76.153C855.009,75.985 855.062,75.714 855.081,75.341L855.361,69.979C855.38,69.727 855.401,69.484 855.424,69.251C855.447,69.018 855.468,68.84 855.487,68.719C855.338,68.728 855.151,68.735 854.927,68.74C854.703,68.745 854.54,68.752 854.437,68.761L854.493,67.683L858.469,67.683ZM864.237,67.655C865.058,67.646 865.765,67.753 866.358,67.977C866.951,68.201 867.399,68.546 867.702,69.013C868.005,69.48 868.124,70.086 868.059,70.833C868.031,71.206 867.926,71.573 867.744,71.932C867.562,72.291 867.301,72.618 866.96,72.912C866.619,73.206 866.199,73.446 865.7,73.633C865.201,73.82 864.62,73.922 863.957,73.941C863.752,73.95 863.572,73.955 863.418,73.955C863.264,73.955 863.108,73.95 862.949,73.941L862.879,75.173C862.87,75.434 862.853,75.682 862.83,75.915C862.807,76.148 862.786,76.326 862.767,76.447C862.87,76.438 863,76.431 863.159,76.426C863.318,76.421 863.472,76.417 863.621,76.412C863.77,76.407 863.878,76.405 863.943,76.405L863.901,77.483L859.771,77.483L859.827,76.559C860.032,76.55 860.21,76.522 860.359,76.475C860.508,76.428 860.627,76.321 860.716,76.153C860.805,75.985 860.858,75.714 860.877,75.341L861.157,69.979C861.176,69.727 861.197,69.484 861.22,69.251C861.243,69.018 861.264,68.84 861.283,68.719C861.134,68.728 860.947,68.735 860.723,68.74C860.499,68.745 860.336,68.752 860.233,68.761L860.289,67.683C860.952,67.674 861.612,67.669 862.27,67.669C862.928,67.669 863.584,67.664 864.237,67.655ZM864.167,68.635C863.971,68.635 863.801,68.658 863.656,68.705C863.511,68.752 863.397,68.854 863.313,69.013C863.229,69.172 863.178,69.414 863.159,69.741L863.005,72.891L863.313,72.919C863.416,72.928 863.523,72.933 863.635,72.933C864.148,72.933 864.571,72.847 864.902,72.674C865.233,72.501 865.483,72.249 865.651,71.918C865.819,71.587 865.917,71.183 865.945,70.707C865.964,70.24 865.917,69.867 865.805,69.587C865.693,69.307 865.541,69.099 865.35,68.964C865.159,68.829 864.958,68.74 864.748,68.698C864.538,68.656 864.344,68.635 864.167,68.635ZM874.989,77.637C874.56,77.637 874.163,77.574 873.799,77.448C873.435,77.322 873.139,77.14 872.91,76.902C872.681,76.664 872.567,76.382 872.567,76.055C872.567,75.794 872.644,75.581 872.798,75.418C872.952,75.255 873.141,75.173 873.365,75.173C873.598,75.173 873.783,75.25 873.918,75.404C874.053,75.558 874.121,75.738 874.121,75.943C874.121,76.008 874.114,76.078 874.1,76.153C874.086,76.228 874.06,76.302 874.023,76.377C874.079,76.508 874.212,76.62 874.422,76.713C874.632,76.806 874.826,76.853 875.003,76.853C875.442,76.853 875.759,76.755 875.955,76.559C876.151,76.363 876.249,76.12 876.249,75.831C876.249,75.626 876.174,75.446 876.025,75.292C875.876,75.138 875.684,74.989 875.451,74.844C875.218,74.699 874.97,74.552 874.709,74.403C874.326,74.179 873.997,73.964 873.722,73.759C873.447,73.554 873.239,73.337 873.099,73.108C872.959,72.879 872.889,72.611 872.889,72.303C872.889,71.967 872.992,71.65 873.197,71.351C873.402,71.052 873.696,70.807 874.079,70.616C874.462,70.425 874.924,70.329 875.465,70.329C875.829,70.329 876.184,70.387 876.529,70.504C876.874,70.621 877.159,70.791 877.383,71.015C877.607,71.239 877.719,71.505 877.719,71.813C877.719,72.037 877.649,72.231 877.509,72.394C877.369,72.557 877.178,72.639 876.935,72.639C876.711,72.639 876.531,72.564 876.396,72.415C876.261,72.266 876.193,72.088 876.193,71.883C876.193,71.808 876.2,71.738 876.214,71.673C876.228,71.608 876.254,71.542 876.291,71.477C876.226,71.356 876.111,71.262 875.948,71.197C875.785,71.132 875.605,71.099 875.409,71.099C875.26,71.099 875.103,71.134 874.94,71.204C874.777,71.274 874.639,71.372 874.527,71.498C874.415,71.624 874.359,71.776 874.359,71.953C874.359,72.102 874.396,72.233 874.471,72.345C874.546,72.457 874.676,72.578 874.863,72.709C875.05,72.84 875.302,72.998 875.619,73.185C875.936,73.372 876.261,73.57 876.592,73.78C876.923,73.99 877.201,74.233 877.425,74.508C877.649,74.783 877.761,75.122 877.761,75.523C877.761,75.934 877.642,76.298 877.404,76.615C877.166,76.932 876.837,77.182 876.417,77.364C875.997,77.546 875.521,77.637 874.989,77.637ZM882.745,70.329C883.128,70.329 883.475,70.387 883.788,70.504C884.101,70.621 884.346,70.805 884.523,71.057C884.7,71.309 884.789,71.636 884.789,72.037C884.789,72.42 884.67,72.746 884.432,73.017C884.194,73.288 883.881,73.509 883.494,73.682C883.107,73.855 882.689,73.997 882.241,74.109C881.793,74.221 881.359,74.3 880.939,74.347C880.939,74.898 881,75.334 881.121,75.656C881.242,75.978 881.408,76.207 881.618,76.342C881.828,76.477 882.059,76.545 882.311,76.545C882.507,76.545 882.724,76.505 882.962,76.426C883.2,76.347 883.436,76.2 883.669,75.985C883.902,75.77 884.108,75.472 884.285,75.089L884.957,75.425C884.696,75.994 884.406,76.44 884.089,76.762C883.772,77.084 883.436,77.31 883.081,77.441C882.726,77.572 882.358,77.637 881.975,77.637C881.107,77.646 880.435,77.39 879.959,76.867C879.483,76.344 879.245,75.588 879.245,74.599C879.245,74.114 879.315,73.621 879.455,73.122C879.595,72.623 879.807,72.163 880.092,71.743C880.377,71.323 880.738,70.982 881.177,70.721C881.616,70.46 882.138,70.329 882.745,70.329ZM882.577,71.099C882.222,71.099 881.933,71.223 881.709,71.47C881.485,71.717 881.315,72.03 881.198,72.408C881.081,72.786 881.004,73.176 880.967,73.577C881.471,73.493 881.896,73.369 882.241,73.206C882.586,73.043 882.852,72.849 883.039,72.625C883.226,72.401 883.319,72.154 883.319,71.883C883.31,71.631 883.235,71.437 883.095,71.302C882.955,71.167 882.782,71.099 882.577,71.099ZM887.169,77.483C887.15,77.334 887.141,77.224 887.141,77.154L887.141,76.909C887.141,76.732 887.15,76.515 887.169,76.258C887.188,76.001 887.213,75.705 887.246,75.369C887.279,75.033 887.318,74.664 887.365,74.263C887.421,73.843 887.47,73.479 887.512,73.171C887.554,72.863 887.584,72.609 887.603,72.408C887.622,72.207 887.631,72.051 887.631,71.939C887.64,71.771 887.624,71.645 887.582,71.561C887.54,71.477 887.472,71.435 887.379,71.435C887.258,71.435 887.127,71.521 886.987,71.694C886.847,71.867 886.716,72.177 886.595,72.625L885.951,72.443C885.988,72.256 886.049,72.042 886.133,71.799C886.217,71.556 886.334,71.323 886.483,71.099C886.632,70.875 886.814,70.691 887.029,70.546C887.244,70.401 887.5,70.329 887.799,70.329C888.144,70.329 888.42,70.436 888.625,70.651C888.83,70.866 888.933,71.22 888.933,71.715C888.924,71.883 888.905,72.077 888.877,72.296C888.849,72.515 888.812,72.76 888.765,73.031L888.793,73.031C889.045,72.284 889.309,71.717 889.584,71.33C889.859,70.943 890.135,70.679 890.41,70.539C890.685,70.399 890.949,70.329 891.201,70.329C891.528,70.329 891.794,70.418 891.999,70.595C892.204,70.772 892.307,71.01 892.307,71.309C892.307,71.524 892.23,71.72 892.076,71.897C891.922,72.074 891.719,72.163 891.467,72.163C891.28,72.163 891.112,72.102 890.963,71.981C890.814,71.86 890.739,71.696 890.739,71.491C890.552,71.454 890.363,71.54 890.172,71.75C889.981,71.96 889.799,72.252 889.626,72.625C889.453,72.998 889.302,73.414 889.171,73.871C889.04,74.328 888.935,74.795 888.856,75.271C888.777,75.747 888.737,76.195 888.737,76.615C888.737,76.736 888.742,76.883 888.751,77.056C888.76,77.229 888.77,77.371 888.779,77.483L887.169,77.483ZM897.837,70.329C898.173,70.329 898.462,70.418 898.705,70.595C898.948,70.772 899.137,71.013 899.272,71.316C899.407,71.619 899.496,71.958 899.538,72.331C899.58,72.704 899.568,73.087 899.503,73.479C899.456,73.927 899.34,74.391 899.153,74.872C898.966,75.353 898.717,75.803 898.404,76.223C898.091,76.643 897.725,76.984 897.305,77.245C896.885,77.506 896.418,77.637 895.905,77.637C895.494,77.637 895.163,77.551 894.911,77.378C894.659,77.205 894.477,76.965 894.365,76.657C894.253,76.349 894.192,75.99 894.183,75.579C894.183,75.29 894.195,74.97 894.218,74.62C894.241,74.27 894.269,73.92 894.302,73.57C894.335,73.22 894.365,72.898 894.393,72.604C894.421,72.31 894.435,72.07 894.435,71.883C894.435,71.724 894.409,71.61 894.358,71.54C894.307,71.47 894.239,71.435 894.155,71.435C894.034,71.435 893.905,71.521 893.77,71.694C893.635,71.867 893.506,72.177 893.385,72.625L892.755,72.443C892.783,72.256 892.846,72.044 892.944,71.806C893.042,71.568 893.175,71.337 893.343,71.113C893.511,70.889 893.709,70.702 893.938,70.553C894.167,70.404 894.435,70.329 894.743,70.329C895.07,70.329 895.324,70.394 895.506,70.525C895.688,70.656 895.819,70.835 895.898,71.064C895.977,71.293 896.017,71.556 896.017,71.855C896.017,72.144 896.005,72.471 895.982,72.835C895.959,73.199 895.931,73.568 895.898,73.941C895.865,74.314 895.835,74.662 895.807,74.984C895.779,75.306 895.765,75.579 895.765,75.803C895.765,75.915 895.777,76.041 895.8,76.181C895.823,76.321 895.872,76.44 895.947,76.538C896.022,76.636 896.148,76.685 896.325,76.685C896.568,76.676 896.817,76.587 897.074,76.419C897.331,76.251 897.571,76.018 897.795,75.719C898.019,75.42 898.208,75.077 898.362,74.69C898.516,74.303 898.607,73.89 898.635,73.451C898.654,73.32 898.665,73.169 898.67,72.996C898.675,72.823 898.663,72.651 898.635,72.478C898.607,72.305 898.563,72.149 898.502,72.009C898.441,71.869 898.355,71.766 898.243,71.701C898.168,71.785 898.08,71.855 897.977,71.911C897.874,71.967 897.758,71.995 897.627,71.995C897.468,71.995 897.3,71.934 897.123,71.813C896.946,71.692 896.857,71.491 896.857,71.211C896.857,71.099 896.887,70.973 896.948,70.833C897.009,70.693 897.111,70.574 897.256,70.476C897.401,70.378 897.594,70.329 897.837,70.329ZM902.597,70.329C903.054,70.329 903.379,70.471 903.57,70.756C903.761,71.041 903.857,71.421 903.857,71.897C903.857,72.14 903.834,72.448 903.787,72.821C903.74,73.194 903.687,73.591 903.626,74.011C903.565,74.431 903.509,74.825 903.458,75.194C903.407,75.563 903.381,75.864 903.381,76.097C903.381,76.256 903.409,76.368 903.465,76.433C903.521,76.498 903.591,76.531 903.675,76.531C903.796,76.531 903.927,76.445 904.067,76.272C904.207,76.099 904.342,75.789 904.473,75.341L905.103,75.523C905.066,75.719 904.996,75.938 904.893,76.181C904.79,76.424 904.657,76.655 904.494,76.874C904.331,77.093 904.132,77.275 903.899,77.42C903.666,77.565 903.4,77.637 903.101,77.637C902.616,77.637 902.275,77.506 902.079,77.245C901.883,76.984 901.785,76.615 901.785,76.139C901.785,75.822 901.811,75.474 901.862,75.096C901.913,74.718 901.972,74.335 902.037,73.948C902.102,73.561 902.158,73.19 902.205,72.835C902.252,72.48 902.275,72.163 902.275,71.883C902.275,71.734 902.252,71.622 902.205,71.547C902.158,71.472 902.088,71.435 901.995,71.435C901.883,71.435 901.757,71.521 901.617,71.694C901.477,71.867 901.342,72.177 901.211,72.625L900.581,72.443C900.609,72.256 900.674,72.042 900.777,71.799C900.88,71.556 901.017,71.323 901.19,71.099C901.363,70.875 901.566,70.691 901.799,70.546C902.032,70.401 902.298,70.329 902.597,70.329ZM903.199,66.969C903.47,66.969 903.694,67.067 903.871,67.263C904.048,67.459 904.128,67.706 904.109,68.005C904.109,68.294 904.016,68.537 903.829,68.733C903.642,68.929 903.409,69.027 903.129,69.027C902.849,69.027 902.623,68.929 902.45,68.733C902.277,68.537 902.191,68.294 902.191,68.005C902.21,67.706 902.317,67.459 902.513,67.263C902.709,67.067 902.938,66.969 903.199,66.969ZM909.513,70.329C909.933,70.329 910.309,70.399 910.64,70.539C910.971,70.679 911.235,70.873 911.431,71.12C911.627,71.367 911.725,71.659 911.725,71.995C911.725,72.247 911.653,72.455 911.508,72.618C911.363,72.781 911.17,72.863 910.927,72.863C910.638,72.872 910.435,72.788 910.318,72.611C910.201,72.434 910.143,72.275 910.143,72.135C910.143,72.051 910.155,71.958 910.178,71.855C910.201,71.752 910.241,71.654 910.297,71.561C910.26,71.421 910.166,71.311 910.017,71.232C909.868,71.153 909.69,71.113 909.485,71.113C909.149,71.113 908.874,71.216 908.659,71.421C908.444,71.626 908.274,71.888 908.148,72.205C908.022,72.522 907.931,72.861 907.875,73.22C907.819,73.579 907.791,73.918 907.791,74.235C907.772,74.786 907.826,75.229 907.952,75.565C908.078,75.901 908.246,76.146 908.456,76.3C908.666,76.454 908.892,76.536 909.135,76.545C909.331,76.554 909.548,76.522 909.786,76.447C910.024,76.372 910.26,76.221 910.493,75.992C910.726,75.763 910.936,75.43 911.123,74.991L911.823,75.327C911.571,75.915 911.284,76.377 910.962,76.713C910.64,77.049 910.299,77.285 909.94,77.42C909.581,77.555 909.21,77.628 908.827,77.637C908.006,77.628 907.345,77.376 906.846,76.881C906.347,76.386 906.097,75.621 906.097,74.585C906.097,74.128 906.165,73.652 906.3,73.157C906.435,72.662 906.643,72.203 906.923,71.778C907.203,71.353 907.558,71.006 907.987,70.735C908.416,70.464 908.925,70.329 909.513,70.329ZM916.583,70.329C916.966,70.329 917.313,70.387 917.626,70.504C917.939,70.621 918.184,70.805 918.361,71.057C918.538,71.309 918.627,71.636 918.627,72.037C918.627,72.42 918.508,72.746 918.27,73.017C918.032,73.288 917.719,73.509 917.332,73.682C916.945,73.855 916.527,73.997 916.079,74.109C915.631,74.221 915.197,74.3 914.777,74.347C914.777,74.898 914.838,75.334 914.959,75.656C915.08,75.978 915.246,76.207 915.456,76.342C915.666,76.477 915.897,76.545 916.149,76.545C916.345,76.545 916.562,76.505 916.8,76.426C917.038,76.347 917.274,76.2 917.507,75.985C917.74,75.77 917.946,75.472 918.123,75.089L918.795,75.425C918.534,75.994 918.244,76.44 917.927,76.762C917.61,77.084 917.274,77.31 916.919,77.441C916.564,77.572 916.196,77.637 915.813,77.637C914.945,77.646 914.273,77.39 913.797,76.867C913.321,76.344 913.083,75.588 913.083,74.599C913.083,74.114 913.153,73.621 913.293,73.122C913.433,72.623 913.645,72.163 913.93,71.743C914.215,71.323 914.576,70.982 915.015,70.721C915.454,70.46 915.976,70.329 916.583,70.329ZM916.415,71.099C916.06,71.099 915.771,71.223 915.547,71.47C915.323,71.717 915.153,72.03 915.036,72.408C914.919,72.786 914.842,73.176 914.805,73.577C915.309,73.493 915.734,73.369 916.079,73.206C916.424,73.043 916.69,72.849 916.877,72.625C917.064,72.401 917.157,72.154 917.157,71.883C917.148,71.631 917.073,71.437 916.933,71.302C916.793,71.167 916.62,71.099 916.415,71.099Z" style="fill:rgb(20,70,140);"/>
            </g>
        </g>
    </g>
</svg>
