<?xml version="1.0" encoding="UTF-8" standalone="no"?>
<!DOCTYPE svg PUBLIC "-//W3C//DTD SVG 1.1//EN" "http://www.w3.org/Graphics/SVG/1.1/DTD/svg11.dtd">
<svg width="100%" height="100%" viewBox="0 0 586 32" version="1.1" xmlns="http://www.w3.org/2000/svg" xmlns:xlink="http://www.w3.org/1999/xlink" xml:space="preserve" xmlns:serif="http://www.serif.com/" style="fill-rule:evenodd;clip-rule:evenodd;stroke-linejoin:round;stroke-miterlimit:2;">
    <g transform="matrix(1.16973,0,0,1,0,0)">
        <g transform="matrix(0.781633,0,0,2.54424,-228.514,-31.7384)">
            <g transform="matrix(1.93981,0,0,0.298776,-30302.1,12.0449)">
                <g transform="matrix(0.428602,0,0,1,9012.04,0)">
                    <g transform="matrix(27.0667,0,0,27.0667,16158.2,32.485)">
                    </g>
                    <text x="15771.9px" y="32.485px" style="font-family:'BookAntiqua-Bold', 'Book Antiqua', serif;font-weight:700;font-size:27.067px;fill:rgb(20,70,140);">J<tspan x="15780.8px " y="32.485px ">e</tspan>ffer<tspan x="15839.9px " y="32.485px ">s</tspan>on<tspan x="15884.2px 15890.9px 15909.7px 15923.9px 15939.6px 15955.4px 15965.7px " y="32.485px 32.485px 32.485px 32.485px 32.485px 32.485px 32.485px "> County</tspan> Clerk’<tspan x="16060.8px " y="32.485px ">s</tspan> Off<tspan x="16123.6px " y="32.485px ">i</tspan>ce</text>
                </g>
            </g>
            <g transform="matrix(0.831408,0,0,0.345327,-4413.59,-1222.65)">
                <path d="M6069.67,3577.38C6069.67,3576.98 6070.04,3576.66 6070.49,3576.66C6070.94,3576.66 6071.31,3576.98 6071.31,3577.38L6071.31,3612.38C6071.31,3612.77 6070.94,3613.09 6070.49,3613.09C6070.04,3613.09 6069.67,3612.77 6069.67,3612.38L6069.67,3577.38Z" style="fill:rgb(20,70,140);"/>
            </g>
            <g transform="matrix(0.831408,0,0,0.345327,-4114.51,-1222.65)">
                <path d="M6069.67,3577.38C6069.67,3576.98 6070.04,3576.66 6070.49,3576.66C6070.94,3576.66 6071.31,3576.98 6071.31,3577.38L6071.31,3612.38C6071.31,3612.77 6070.94,3613.09 6070.49,3613.09C6070.04,3613.09 6069.67,3612.77 6069.67,3612.38L6069.67,3577.38Z" style="fill:rgb(20,70,140);"/>
            </g>
            <g transform="matrix(0.960383,0,0,0.0973946,-1383.44,7.4261)">
                <path d="M2124.68,83.771L2125.83,86.788C2124.97,90.594 2124.44,94.318 2124.23,97.96L2123.95,103.424L2121.88,103.424L2122.09,98.857C2122.37,92.823 2123.23,87.794 2124.68,83.771ZM2128.19,83.771L2129.34,86.788C2128.48,90.594 2127.95,94.318 2127.74,97.96L2127.46,103.424L2125.39,103.424L2125.6,98.857C2125.88,92.823 2126.74,87.794 2128.19,83.771Z" style="fill:rgb(20,70,140);fill-rule:nonzero;"/>
                <path d="M2128.66,147.172L2131.57,87.808L2136.49,87.848C2138.2,87.848 2139.48,89.208 2140.33,91.926C2141.18,94.644 2141.55,98.436 2141.44,103.301C2141.31,108.982 2140.3,113.263 2138.42,116.145C2139.17,117.177 2139.73,118.944 2140.1,121.445C2140.47,123.946 2140.63,126.705 2140.56,129.722C2140.44,135.077 2139.84,139.324 2138.74,142.463C2137.64,145.603 2136.22,147.172 2134.48,147.172L2128.66,147.172ZM2132.18,119.406L2131.14,140.771L2134.55,140.812C2135.6,140.812 2136.47,139.82 2137.18,137.835C2137.88,135.851 2138.29,133.174 2138.41,129.803C2138.51,126.596 2138.36,124.095 2137.93,122.301C2137.51,120.507 2136.85,119.556 2135.94,119.447L2132.18,119.406ZM2132.49,113.127L2135.61,113.168C2136.59,113.168 2137.41,112.285 2138.08,110.518C2138.75,108.751 2139.14,106.318 2139.26,103.22C2139.36,100.338 2139.2,98.164 2138.78,96.696C2138.36,95.228 2137.67,94.426 2136.7,94.291L2133.41,94.25L2132.49,113.127Z" style="fill:rgb(20,70,140);fill-rule:nonzero;"/>
                <path d="M2150.43,109.784L2149.45,109.417C2148.12,109.417 2147.07,111.551 2146.3,115.818L2144.77,147.172L2142.69,147.172L2144.85,103.057L2146.86,103.016L2146.55,108.153C2147.43,104.049 2148.47,102.051 2149.67,102.16C2149.92,102.16 2150.25,102.363 2150.66,102.771L2150.43,109.784Z" style="fill:rgb(20,70,140);fill-rule:nonzero;"/>
                <path d="M2152.79,147.172L2150.72,147.172L2152.88,103.057L2154.95,103.057L2152.79,147.172ZM2154.5,86.951C2154.86,86.897 2155.15,87.271 2155.38,88.073C2155.62,88.875 2155.73,89.928 2155.73,91.233C2155.73,92.51 2155.61,93.557 2155.38,94.372C2155.16,95.188 2154.86,95.622 2154.5,95.677C2154.14,95.731 2153.85,95.364 2153.62,94.576C2153.39,93.788 2153.28,92.755 2153.28,91.477C2153.29,90.2 2153.41,89.14 2153.63,88.297C2153.85,87.454 2154.14,87.006 2154.5,86.951Z" style="fill:rgb(20,70,140);fill-rule:nonzero;"/>
                <path d="M2160.32,103.016L2160.03,108.602C2161.15,104.253 2162.42,102.132 2163.85,102.241C2165.02,102.35 2165.89,103.79 2166.45,106.563C2167.01,109.336 2167.21,113.236 2167.07,118.265L2165.71,147.172L2163.63,147.172L2165,118.142C2165.04,116.81 2165.05,115.574 2165.01,114.432C2164.88,110.627 2164.24,108.683 2163.11,108.602C2161.86,108.52 2160.76,110.885 2159.82,115.696L2158.28,147.172L2156.2,147.172L2158.36,103.057L2160.32,103.016Z" style="fill:rgb(20,70,140);fill-rule:nonzero;"/>
                <path d="M2169.53,125.033C2169.71,120.222 2170.08,116.043 2170.63,112.495C2171.18,108.948 2171.85,106.325 2172.63,104.626C2173.42,102.927 2174.28,102.119 2175.21,102.2C2176.66,102.309 2177.74,104.239 2178.48,107.99L2178.9,103.057L2180.81,103.057L2178.74,146.235C2178.51,151.861 2177.87,156.366 2176.8,159.751C2175.74,163.135 2174.42,164.745 2172.86,164.582C2172.01,164.528 2171.2,163.821 2170.43,162.462C2169.66,161.103 2169.05,159.241 2168.61,156.876L2169.8,152.35C2170.55,156.292 2171.54,158.317 2172.78,158.426C2173.76,158.534 2174.6,157.556 2175.29,155.49C2175.97,153.424 2176.43,150.488 2176.65,146.683L2176.88,142.769C2175.87,146.357 2174.68,148.096 2173.33,147.988C2172.55,147.906 2171.88,147.166 2171.31,145.766C2170.74,144.366 2170.29,142.341 2169.98,139.691C2169.66,137.04 2169.49,134.084 2169.46,130.823C2169.45,129.219 2169.47,127.289 2169.53,125.033ZM2171.54,129.232C2171.52,133.119 2171.71,136.13 2172.11,138.264C2172.52,140.397 2173.12,141.519 2173.94,141.627C2175.18,141.736 2176.25,139.575 2177.15,135.144L2178.12,114.881C2177.66,110.858 2176.83,108.765 2175.63,108.602C2174.5,108.493 2173.57,110.124 2172.85,113.494C2172.12,116.865 2171.7,121.418 2171.57,127.153L2171.54,129.232Z" style="fill:rgb(20,70,140);fill-rule:nonzero;"/>
                <path d="M2184.12,147.172L2182.05,147.172L2184.21,103.057L2186.28,103.057L2184.12,147.172ZM2185.83,86.951C2186.19,86.897 2186.48,87.271 2186.71,88.073C2186.95,88.875 2187.07,89.928 2187.07,91.233C2187.06,92.51 2186.94,93.557 2186.71,94.372C2186.49,95.188 2186.2,95.622 2185.83,95.677C2185.47,95.731 2185.18,95.364 2184.95,94.576C2184.72,93.788 2184.61,92.755 2184.61,91.477C2184.62,90.2 2184.74,89.14 2184.96,88.297C2185.18,87.454 2185.47,87.006 2185.83,86.951Z" style="fill:rgb(20,70,140);fill-rule:nonzero;"/>
                <path d="M2191.66,103.016L2191.36,108.602C2192.48,104.253 2193.75,102.132 2195.18,102.241C2196.35,102.35 2197.22,103.79 2197.78,106.563C2198.34,109.336 2198.54,113.236 2198.4,118.265L2197.04,147.172L2194.96,147.172L2196.33,118.142C2196.37,116.81 2196.38,115.574 2196.34,114.432C2196.21,110.627 2195.58,108.683 2194.44,108.602C2193.19,108.52 2192.09,110.885 2191.15,115.696L2189.61,147.172L2187.53,147.172L2189.69,103.057L2191.66,103.016Z" style="fill:rgb(20,70,140);fill-rule:nonzero;"/>
                <path d="M2200.86,125.033C2201.05,120.222 2201.41,116.043 2201.96,112.495C2202.51,108.948 2203.18,106.325 2203.96,104.626C2204.75,102.927 2205.61,102.119 2206.55,102.2C2207.99,102.309 2209.08,104.239 2209.81,107.99L2210.23,103.057L2212.14,103.057L2210.07,146.235C2209.84,151.861 2209.2,156.366 2208.13,159.751C2207.07,163.135 2205.75,164.745 2204.19,164.582C2203.34,164.528 2202.53,163.821 2201.76,162.462C2200.99,161.103 2200.39,159.241 2199.94,156.876L2201.13,152.35C2201.88,156.292 2202.87,158.317 2204.11,158.426C2205.1,158.534 2205.93,157.556 2206.62,155.49C2207.31,153.424 2207.76,150.488 2207.98,146.683L2208.21,142.769C2207.2,146.357 2206.02,148.096 2204.66,147.988C2203.88,147.906 2203.21,147.166 2202.64,145.766C2202.07,144.366 2201.62,142.341 2201.31,139.691C2200.99,137.04 2200.82,134.084 2200.79,130.823C2200.78,129.219 2200.8,127.289 2200.86,125.033ZM2202.87,129.232C2202.85,133.119 2203.04,136.13 2203.44,138.264C2203.85,140.397 2204.45,141.519 2205.27,141.627C2206.51,141.736 2207.58,139.575 2208.48,135.144L2209.46,114.881C2209,110.858 2208.16,108.765 2206.96,108.602C2205.83,108.493 2204.91,110.124 2204.18,113.494C2203.46,116.865 2203.03,121.418 2202.9,127.153L2202.87,129.232Z" style="fill:rgb(20,70,140);fill-rule:nonzero;"/>
                <path d="M2223.44,136.041L2227.87,103.057L2230.17,103.057L2222.78,154.511C2221.75,161.66 2220.43,165.194 2218.82,165.112C2218.54,165.085 2218.12,164.84 2217.57,164.378L2217.75,158.262L2218.29,158.466C2218.95,158.575 2219.52,158.052 2220,156.897C2220.48,155.741 2220.9,153.873 2221.27,151.29L2222.02,146.235L2219.87,103.057L2222.04,103.057L2223.44,136.041Z" style="fill:rgb(20,70,140);fill-rule:nonzero;"/>
                <path d="M2236.64,102.241C2237.69,102.296 2238.58,103.301 2239.33,105.258C2240.07,107.215 2240.62,109.913 2240.98,113.352C2241.33,116.79 2241.45,120.548 2241.34,124.625L2241.32,125.522C2241.17,129.817 2240.81,133.697 2240.24,137.163C2239.66,140.628 2238.91,143.326 2238,145.256C2237.09,147.186 2236.09,148.096 2235,147.988C2233.96,147.933 2233.07,146.928 2232.32,144.971C2231.58,143.014 2231.03,140.35 2230.68,136.979C2230.34,133.609 2230.22,129.898 2230.32,125.848C2230.43,121.282 2230.78,117.177 2231.36,113.535C2231.95,109.893 2232.7,107.073 2233.61,105.075C2234.53,103.077 2235.54,102.132 2236.64,102.241ZM2232.41,125.889C2232.36,127.602 2232.36,129.382 2232.41,131.23C2232.49,134.438 2232.76,136.993 2233.22,138.896C2233.69,140.798 2234.3,141.79 2235.08,141.872C2235.77,141.953 2236.41,141.349 2236.99,140.058C2237.57,138.766 2238.06,136.816 2238.46,134.207C2238.86,131.597 2239.12,128.702 2239.23,125.522C2239.3,123.021 2239.31,120.915 2239.27,119.202C2239.18,115.913 2238.9,113.318 2238.43,111.415C2237.96,109.512 2237.34,108.506 2236.56,108.398C2235.49,108.316 2234.58,109.811 2233.83,112.883C2233.07,115.954 2232.61,119.977 2232.43,124.951L2232.41,125.889Z" style="fill:rgb(20,70,140);fill-rule:nonzero;"/>
                <path d="M2250.79,142.81C2249.81,146.37 2248.57,148.096 2247.07,147.988C2245.88,147.879 2245,146.37 2244.43,143.462C2243.86,140.554 2243.64,136.585 2243.79,131.556L2245.12,103.057L2247.21,103.057L2245.86,131.679C2245.82,132.875 2245.82,134.044 2245.84,135.185C2245.88,137.142 2246.04,138.678 2246.33,139.793C2246.62,140.907 2247.03,141.505 2247.55,141.587C2249.04,141.75 2250.19,139.616 2251,135.185L2252.57,103.057L2254.65,103.057L2252.49,147.172L2250.52,147.172L2250.79,142.81Z" style="fill:rgb(20,70,140);fill-rule:nonzero;"/>
                <path d="M2267.99,132.331L2273.62,87.808L2277.49,87.808L2269.22,147.172L2265.7,147.172L2262.68,87.808L2266.31,87.808L2267.99,132.331Z" style="fill:rgb(20,70,140);fill-rule:nonzero;"/>
                <path d="M2279.91,147.172L2276.54,147.172L2279.43,87.808L2282.81,87.808L2279.91,147.172Z" style="fill:rgb(20,70,140);fill-rule:nonzero;"/>
                <path d="M2287.5,126.256L2286.47,147.172L2283.09,147.172L2286.01,87.808L2291.87,87.848C2293.68,87.848 2295.11,89.629 2296.14,93.19C2297.18,96.75 2297.63,101.399 2297.5,107.134C2297.38,112.951 2296.69,117.599 2295.45,121.078C2294.2,124.557 2292.61,126.297 2290.68,126.297L2287.5,126.256ZM2287.97,116.348L2290.78,116.43C2291.69,116.43 2292.44,115.601 2293.04,113.943C2293.63,112.285 2293.99,110.042 2294.11,107.215C2294.22,104.388 2294.09,102.132 2293.72,100.447C2293.35,98.762 2292.8,97.865 2292.07,97.756L2288.89,97.715L2287.97,116.348Z" style="fill:rgb(20,70,140);fill-rule:nonzero;"/>
                <path d="M2311.55,135.226C2311.66,132.182 2311.19,130.034 2310.13,128.784L2307.97,126.541C2306.14,124.313 2305.26,120.616 2305.32,115.451C2305.38,111.564 2305.88,108.377 2306.83,105.89C2307.77,103.403 2308.89,102.187 2310.17,102.241C2311.43,102.296 2312.45,103.593 2313.23,106.135C2314.02,108.676 2314.4,111.986 2314.37,116.063L2312.3,116.022C2312.31,113.821 2312.12,112.027 2311.71,110.64C2311.3,109.254 2310.76,108.534 2310.09,108.479C2309.37,108.425 2308.74,109.05 2308.22,110.355C2307.74,111.578 2307.46,113.182 2307.38,115.166C2307.28,117.721 2307.72,119.583 2308.71,120.752L2309.75,121.771C2311.18,123.076 2312.19,124.775 2312.79,126.868C2313.39,128.961 2313.67,131.556 2313.62,134.655C2313.57,137.401 2313.32,139.793 2312.86,141.831C2312.4,143.87 2311.79,145.426 2311.02,146.5C2310.25,147.573 2309.43,148.069 2308.57,147.988C2307.25,147.933 2306.16,146.568 2305.3,143.89C2304.44,141.213 2304.03,137.767 2304.06,133.554L2306.14,133.595C2306.14,136.069 2306.36,138.053 2306.81,139.548C2307.25,141.043 2307.86,141.79 2308.64,141.79C2309.4,141.845 2310.05,141.281 2310.61,140.098C2311.16,138.916 2311.47,137.292 2311.55,135.226Z" style="fill:rgb(20,70,140);fill-rule:nonzero;"/>
                <path d="M2321.12,147.988C2319.57,147.879 2318.36,145.854 2317.49,141.913C2316.61,137.971 2316.24,132.929 2316.38,126.786L2316.44,125.033C2316.57,120.657 2316.93,116.661 2317.54,113.046C2318.14,109.431 2318.87,106.706 2319.74,104.871C2320.61,103.036 2321.54,102.16 2322.55,102.241C2323.83,102.35 2324.83,103.858 2325.56,106.767C2326.29,109.675 2326.69,113.617 2326.76,118.591C2326.78,120.358 2326.77,122.124 2326.71,123.891L2326.59,127.275L2318.45,127.275C2318.31,131.271 2318.5,134.669 2319.01,137.468C2319.52,140.268 2320.28,141.722 2321.29,141.831C2322.52,141.94 2323.66,139.983 2324.7,135.96L2325.9,139.548C2325.38,142.212 2324.7,144.298 2323.88,145.806C2323.05,147.315 2322.13,148.042 2321.12,147.988ZM2322.45,108.398C2321.59,108.316 2320.84,109.349 2320.2,111.496C2319.55,113.644 2319.05,116.838 2318.67,121.078L2324.72,121.119L2324.77,120.466C2324.89,117.042 2324.74,114.194 2324.3,111.925C2323.87,109.655 2323.25,108.479 2322.45,108.398Z" style="fill:rgb(20,70,140);fill-rule:nonzero;"/>
                <path d="M2335.7,109.784L2334.72,109.417C2333.39,109.417 2332.34,111.551 2331.57,115.818L2330.04,147.172L2327.96,147.172L2330.12,103.057L2332.13,103.016L2331.82,108.153C2332.7,104.049 2333.74,102.051 2334.94,102.16C2335.19,102.16 2335.52,102.363 2335.93,102.771L2335.7,109.784Z" style="fill:rgb(20,70,140);fill-rule:nonzero;"/>
                <path d="M2340.53,136.857L2345.02,103.057L2347.22,103.057L2340.95,147.172L2339.36,147.172L2336.92,103.057L2338.97,103.057L2340.53,136.857Z" style="fill:rgb(20,70,140);fill-rule:nonzero;"/>
                <path d="M2349.45,147.172L2347.38,147.172L2349.54,103.057L2351.61,103.057L2349.45,147.172ZM2351.16,86.951C2351.52,86.897 2351.81,87.271 2352.04,88.073C2352.28,88.875 2352.39,89.928 2352.39,91.233C2352.39,92.51 2352.27,93.557 2352.04,94.372C2351.82,95.188 2351.52,95.622 2351.16,95.677C2350.8,95.731 2350.51,95.364 2350.28,94.576C2350.05,93.788 2349.94,92.755 2349.94,91.477C2349.95,90.2 2350.07,89.14 2350.29,88.297C2350.51,87.454 2350.8,87.006 2351.16,86.951Z" style="fill:rgb(20,70,140);fill-rule:nonzero;"/>
                <path d="M2358.11,141.872C2358.86,141.926 2359.53,141.158 2360.13,139.568C2360.72,137.978 2361.12,135.892 2361.3,133.31L2363.27,133.269C2363.15,136.041 2362.84,138.569 2362.33,140.853C2361.82,143.136 2361.18,144.916 2360.4,146.194C2359.63,147.471 2358.84,148.069 2358.02,147.988C2356.99,147.933 2356.11,146.975 2355.39,145.113C2354.68,143.251 2354.15,140.656 2353.81,137.326C2353.47,133.996 2353.36,130.252 2353.47,126.093L2353.52,124.054C2353.67,119.814 2354.02,116.022 2354.57,112.679C2355.12,109.336 2355.84,106.733 2356.73,104.871C2357.62,103.009 2358.6,102.132 2359.68,102.241C2360.98,102.35 2362.03,103.899 2362.81,106.889C2363.59,109.879 2363.98,113.671 2363.98,118.265L2362.04,118.224C2362.02,115.343 2361.8,113.012 2361.36,111.231C2360.92,109.451 2360.33,108.506 2359.59,108.398C2358.51,108.316 2357.61,109.743 2356.89,112.679C2356.17,115.614 2355.72,119.719 2355.55,124.992L2355.51,126.052C2355.47,127.792 2355.46,129.586 2355.49,131.434C2355.54,134.614 2355.8,137.129 2356.25,138.977C2356.7,140.825 2357.32,141.79 2358.11,141.872Z" style="fill:rgb(20,70,140);fill-rule:nonzero;"/>
                <path d="M2370.32,147.988C2368.77,147.879 2367.56,145.854 2366.69,141.913C2365.81,137.971 2365.44,132.929 2365.58,126.786L2365.64,125.033C2365.77,120.657 2366.14,116.661 2366.74,113.046C2367.34,109.431 2368.07,106.706 2368.94,104.871C2369.81,103.036 2370.74,102.16 2371.75,102.241C2373.03,102.35 2374.03,103.858 2374.76,106.767C2375.49,109.675 2375.89,113.617 2375.96,118.591C2375.98,120.358 2375.97,122.124 2375.91,123.891L2375.79,127.275L2367.65,127.275C2367.51,131.271 2367.7,134.669 2368.21,137.468C2368.72,140.268 2369.48,141.722 2370.49,141.831C2371.72,141.94 2372.86,139.983 2373.9,135.96L2375.1,139.548C2374.58,142.212 2373.9,144.298 2373.08,145.806C2372.25,147.315 2371.33,148.042 2370.32,147.988ZM2371.64,108.398C2370.79,108.316 2370.04,109.349 2369.39,111.496C2368.76,113.644 2368.25,116.838 2367.87,121.078L2373.92,121.119L2373.97,120.466C2374.09,117.042 2373.94,114.194 2373.5,111.925C2373.07,109.655 2372.45,108.479 2371.64,108.398Z" style="fill:rgb(20,70,140);fill-rule:nonzero;"/>
                <path d="M2378.69,138.61C2379.06,138.583 2379.37,138.991 2379.62,139.833C2379.86,140.676 2379.98,141.763 2379.97,143.095C2379.97,144.427 2379.84,145.507 2379.6,146.336C2379.35,147.166 2379.04,147.607 2378.68,147.662C2378.31,147.716 2378,147.342 2377.77,146.54C2377.53,145.738 2377.41,144.672 2377.41,143.34C2377.41,142.008 2377.53,140.9 2377.77,140.017C2378,139.133 2378.31,138.664 2378.69,138.61Z" style="fill:rgb(20,70,140);fill-rule:nonzero;"/>
                <path d="M2383.7,104.524L2382.55,101.507C2383.46,97.512 2384,93.638 2384.19,89.887L2384.45,84.546L2386.5,84.546L2386.28,89.479C2386,95.595 2385.14,100.61 2383.7,104.524Z" style="fill:rgb(20,70,140);fill-rule:nonzero;"/>
                <path d="M2387.16,104.524L2386,101.507C2386.91,97.512 2387.45,93.638 2387.64,89.887L2387.9,84.546L2389.95,84.546L2389.73,89.479C2389.46,95.595 2388.6,100.61 2387.16,104.524Z" style="fill:rgb(20,70,140);fill-rule:nonzero;"/>
            </g>
        </g>
    </g>
</svg>
