<?xml version="1.0" encoding="UTF-8" standalone="no"?>
<!DOCTYPE svg PUBLIC "-//W3C//DTD SVG 1.1//EN" "http://www.w3.org/Graphics/SVG/1.1/DTD/svg11.dtd">
<svg width="100%" height="100%" viewBox="0 0 271 42" version="1.1" xmlns="http://www.w3.org/2000/svg" xmlns:xlink="http://www.w3.org/1999/xlink" xml:space="preserve" xmlns:serif="http://www.serif.com/" style="fill-rule:evenodd;clip-rule:evenodd;stroke-linejoin:round;stroke-miterlimit:2;">
    <g transform="matrix(1,0,0,1,-2131.21,-142.568)">
        <g transform="matrix(0.975,0,0,2.88139,1246.67,0)">
            <g transform="matrix(0.953541,0,0,0.20495,-1136.66,32.1511)">
                <path d="M2144.73,87.324L2144.48,93.535L2143.47,93.535L2143.51,84.546L2144.73,84.546L2144.73,87.324ZM2147.7,87.324L2147.45,93.535L2146.43,93.535L2146.48,84.546L2147.7,84.546L2147.7,87.324Z" style="fill:white;fill-rule:nonzero;"/>
                <path d="M2152.17,115.026L2152.17,86.133L2157.59,86.133C2159.56,86.133 2161.05,86.772 2162.07,88.048C2163.08,89.325 2163.59,91.207 2163.59,93.694C2163.59,95.189 2163.33,96.489 2162.82,97.593C2162.3,98.698 2161.59,99.488 2160.69,99.965C2161.76,100.335 2162.62,101.162 2163.27,102.445C2163.92,103.729 2164.25,105.21 2164.25,106.89C2164.25,109.444 2163.72,111.438 2162.68,112.873C2161.63,114.309 2160.18,115.026 2158.31,115.026L2152.17,115.026ZM2153.72,101.136L2153.72,112.963L2158.37,112.963C2159.7,112.963 2160.76,112.43 2161.53,111.365C2162.31,110.3 2162.7,108.822 2162.7,106.93C2162.7,105.144 2162.33,103.732 2161.58,102.693C2160.84,101.655 2159.81,101.136 2158.5,101.136L2153.72,101.136ZM2153.72,99.092L2157.96,99.092C2159.25,99.052 2160.26,98.572 2160.97,97.653C2161.68,96.733 2162.03,95.394 2162.03,93.634C2162.03,91.782 2161.66,90.416 2160.93,89.537C2160.19,88.657 2159.08,88.217 2157.59,88.217L2153.72,88.217L2153.72,99.092Z" style="fill:white;fill-rule:nonzero;"/>
                <path d="M2173.94,95.579C2173.62,95.487 2173.28,95.44 2172.92,95.44C2171.98,95.44 2171.18,95.854 2170.53,96.681C2169.88,97.507 2169.42,98.708 2169.14,100.282L2169.14,115.026L2167.64,115.026L2167.64,93.555L2169.11,93.555L2169.14,96.968C2169.94,94.428 2171.22,93.158 2172.98,93.158C2173.4,93.158 2173.74,93.244 2173.98,93.416L2173.94,95.579Z" style="fill:white;fill-rule:nonzero;"/>
                <path d="M2178.01,115.026L2176.5,115.026L2176.5,93.555L2178.01,93.555L2178.01,115.026ZM2176.24,87.344C2176.24,86.894 2176.33,86.514 2176.51,86.203C2176.7,85.892 2176.95,85.737 2177.27,85.737C2177.59,85.737 2177.84,85.892 2178.03,86.203C2178.22,86.514 2178.32,86.894 2178.32,87.344C2178.32,87.794 2178.22,88.171 2178.03,88.475C2177.84,88.779 2177.59,88.931 2177.27,88.931C2176.95,88.931 2176.7,88.779 2176.51,88.475C2176.33,88.171 2176.24,87.794 2176.24,87.344Z" style="fill:white;fill-rule:nonzero;"/>
                <path d="M2183.55,93.555L2183.6,97.226C2184.11,95.903 2184.75,94.895 2185.51,94.2C2186.28,93.506 2187.12,93.158 2188.05,93.158C2189.51,93.158 2190.6,93.806 2191.31,95.103C2192.03,96.399 2192.39,98.344 2192.39,100.937L2192.39,115.026L2190.89,115.026L2190.89,100.917C2190.89,98.999 2190.63,97.57 2190.12,96.631C2189.61,95.692 2188.8,95.222 2187.68,95.222C2186.75,95.222 2185.92,95.682 2185.2,96.601C2184.49,97.521 2183.95,98.761 2183.61,100.322L2183.61,115.026L2182.11,115.026L2182.11,93.555L2183.55,93.555Z" style="fill:white;fill-rule:nonzero;"/>
                <path d="M2195.68,104.092C2195.68,100.732 2196.16,98.07 2197.1,96.105C2198.05,94.141 2199.33,93.158 2200.95,93.158C2202.81,93.158 2204.22,94.322 2205.19,96.651L2205.26,93.555L2206.68,93.555L2206.68,114.59C2206.68,117.355 2206.18,119.544 2205.2,121.158C2204.22,122.772 2202.89,123.579 2201.21,123.579C2200.26,123.579 2199.35,123.245 2198.49,122.577C2197.63,121.909 2196.95,121.019 2196.45,119.908L2197.3,118.479C2198.37,120.543 2199.63,121.575 2201.11,121.575C2202.37,121.575 2203.35,120.99 2204.05,119.819C2204.76,118.648 2205.13,117.024 2205.15,114.947L2205.15,112.248C2204.18,114.365 2202.78,115.423 2200.93,115.423C2199.35,115.423 2198.08,114.431 2197.12,112.447C2196.16,110.462 2195.68,107.783 2195.68,104.41L2195.68,104.092ZM2197.21,104.509C2197.21,107.248 2197.56,109.407 2198.26,110.988C2198.95,112.569 2199.94,113.359 2201.21,113.359C2203.06,113.359 2204.38,112.05 2205.15,109.43L2205.15,99.449C2204.8,98.073 2204.29,97.025 2203.63,96.304C2202.96,95.583 2202.16,95.222 2201.23,95.222C2199.96,95.222 2198.97,96.006 2198.27,97.574C2197.56,99.141 2197.21,101.453 2197.21,104.509Z" style="fill:white;fill-rule:nonzero;"/>
                <path d="M2212.3,115.026L2210.78,115.026L2210.78,93.555L2212.3,93.555L2212.3,115.026ZM2210.52,87.344C2210.52,86.894 2210.61,86.514 2210.8,86.203C2210.98,85.892 2211.24,85.737 2211.55,85.737C2211.87,85.737 2212.13,85.892 2212.32,86.203C2212.51,86.514 2212.6,86.894 2212.6,87.344C2212.6,87.794 2212.51,88.171 2212.32,88.475C2212.13,88.779 2211.87,88.931 2211.55,88.931C2211.24,88.931 2210.98,88.779 2210.8,88.475C2210.61,88.171 2210.52,87.794 2210.52,87.344Z" style="fill:white;fill-rule:nonzero;"/>
                <path d="M2217.83,93.555L2217.88,97.226C2218.39,95.903 2219.03,94.895 2219.8,94.2C2220.56,93.506 2221.41,93.158 2222.33,93.158C2223.79,93.158 2224.88,93.806 2225.6,95.103C2226.31,96.399 2226.67,98.344 2226.68,100.937L2226.68,115.026L2225.18,115.026L2225.18,100.917C2225.17,98.999 2224.91,97.57 2224.41,96.631C2223.9,95.692 2223.08,95.222 2221.97,95.222C2221.03,95.222 2220.21,95.682 2219.49,96.601C2218.77,97.521 2218.24,98.761 2217.89,100.322L2217.89,115.026L2216.39,115.026L2216.39,93.555L2217.83,93.555Z" style="fill:white;fill-rule:nonzero;"/>
                <path d="M2229.97,104.092C2229.97,100.732 2230.44,98.07 2231.39,96.105C2232.33,94.141 2233.62,93.158 2235.24,93.158C2237.1,93.158 2238.51,94.322 2239.47,96.651L2239.55,93.555L2240.96,93.555L2240.96,114.59C2240.96,117.355 2240.47,119.544 2239.49,121.158C2238.5,122.772 2237.17,123.579 2235.49,123.579C2234.54,123.579 2233.64,123.245 2232.77,122.577C2231.91,121.909 2231.24,121.019 2230.74,119.908L2231.58,118.479C2232.65,120.543 2233.92,121.575 2235.39,121.575C2236.65,121.575 2237.63,120.99 2238.34,119.819C2239.05,118.648 2239.41,117.024 2239.44,114.947L2239.44,112.248C2238.47,114.365 2237.06,115.423 2235.21,115.423C2233.63,115.423 2232.37,114.431 2231.41,112.447C2230.45,110.462 2229.97,107.783 2229.97,104.41L2229.97,104.092ZM2231.49,104.509C2231.49,107.248 2231.84,109.407 2232.54,110.988C2233.24,112.569 2234.22,113.359 2235.49,113.359C2237.35,113.359 2238.66,112.05 2239.44,109.43L2239.44,99.449C2239.08,98.073 2238.58,97.025 2237.91,96.304C2237.25,95.583 2236.45,95.222 2235.52,95.222C2234.25,95.222 2233.26,96.006 2232.55,97.574C2231.85,99.141 2231.49,101.453 2231.49,104.509Z" style="fill:white;fill-rule:nonzero;"/>
                <path d="M2255.49,111.613L2259.48,93.555L2261.1,93.555L2255.28,118.678L2254.98,119.789C2254.23,122.395 2253.08,123.698 2251.51,123.698C2251.15,123.698 2250.76,123.606 2250.35,123.42L2250.34,121.456L2251.12,121.575C2251.86,121.575 2252.46,121.287 2252.92,120.712C2253.38,120.136 2253.76,119.147 2254.08,117.745L2254.75,114.848L2249.61,93.555L2251.26,93.555L2255.49,111.613Z" style="fill:white;fill-rule:nonzero;"/>
                <path d="M2262.41,103.973C2262.41,101.909 2262.67,100.051 2263.18,98.397C2263.69,96.743 2264.4,95.457 2265.33,94.537C2266.26,93.618 2267.31,93.158 2268.49,93.158C2270.3,93.158 2271.78,94.16 2272.9,96.165C2274.03,98.169 2274.59,100.825 2274.59,104.132L2274.59,104.628C2274.59,106.705 2274.34,108.574 2273.83,110.234C2273.32,111.894 2272.6,113.174 2271.68,114.074C2270.76,114.973 2269.7,115.423 2268.51,115.423C2266.71,115.423 2265.24,114.421 2264.11,112.417C2262.98,110.413 2262.41,107.757 2262.41,104.45L2262.41,103.973ZM2263.93,104.628C2263.93,107.195 2264.35,109.301 2265.19,110.948C2266.04,112.595 2267.15,113.419 2268.51,113.419C2269.88,113.419 2270.98,112.595 2271.82,110.948C2272.67,109.301 2273.09,107.128 2273.09,104.43L2273.09,103.973C2273.09,102.333 2272.9,100.831 2272.51,99.469C2272.12,98.106 2271.58,97.051 2270.89,96.304C2270.19,95.556 2269.39,95.182 2268.49,95.182C2267.15,95.182 2266.05,96.012 2265.2,97.673C2264.35,99.333 2263.93,101.506 2263.93,104.192L2263.93,104.628Z" style="fill:white;fill-rule:nonzero;"/>
                <path d="M2286.48,112.308C2285.57,114.385 2284.12,115.423 2282.13,115.423C2280.68,115.423 2279.57,114.758 2278.81,113.429C2278.06,112.099 2277.67,110.132 2277.65,107.525L2277.65,93.555L2279.15,93.555L2279.15,107.228C2279.15,111.316 2280.2,113.359 2282.3,113.359C2284.49,113.359 2285.87,111.937 2286.45,109.093L2286.45,93.555L2287.97,93.555L2287.97,115.026L2286.5,115.026L2286.48,112.308Z" style="fill:white;fill-rule:nonzero;"/>
                <path d="M2304.53,108.736L2309.19,86.133L2312.7,86.133L2306.09,115.026L2303,115.026L2296.42,86.133L2299.91,86.133L2304.53,108.736Z" style="fill:white;fill-rule:nonzero;"/>
                <rect x="2314.95" y="86.133" width="3.176" height="28.893" style="fill:white;fill-rule:nonzero;"/>
                <path d="M2325.24,104.291L2325.24,115.026L2322.05,115.026L2322.05,86.133L2329.07,86.133C2331.12,86.133 2332.75,86.974 2333.95,88.654C2335.16,90.334 2335.76,92.556 2335.76,95.321C2335.76,98.152 2335.17,100.355 2333.99,101.929C2332.81,103.504 2331.16,104.291 2329.03,104.291L2325.24,104.291ZM2325.24,100.262L2329.07,100.262C2330.2,100.262 2331.07,99.842 2331.67,99.002C2332.26,98.162 2332.56,96.948 2332.56,95.361C2332.56,93.8 2332.26,92.553 2331.65,91.62C2331.05,90.688 2330.22,90.208 2329.16,90.182L2325.24,90.182L2325.24,100.262Z" style="fill:white;fill-rule:nonzero;"/>
                <path d="M2353.09,109.569C2353.09,108.392 2352.79,107.446 2352.19,106.732C2351.59,106.017 2350.69,105.458 2349.48,105.055C2348.27,104.651 2347.33,104.188 2346.66,103.666C2345.99,103.143 2345.49,102.505 2345.17,101.751C2344.85,100.997 2344.69,100.084 2344.69,99.012C2344.69,97.319 2345.14,95.92 2346.03,94.815C2346.93,93.711 2348.09,93.158 2349.49,93.158C2351.01,93.158 2352.23,93.75 2353.15,94.934C2354.07,96.118 2354.53,97.663 2354.53,99.568L2353.02,99.568C2353.02,98.311 2352.68,97.266 2352.02,96.433C2351.35,95.599 2350.51,95.182 2349.49,95.182C2348.5,95.182 2347.7,95.53 2347.1,96.224C2346.5,96.919 2346.2,97.822 2346.2,98.933C2346.2,100.004 2346.45,100.835 2346.95,101.423C2347.45,102.012 2348.36,102.551 2349.68,103.041C2351.01,103.53 2352,104.053 2352.66,104.608C2353.32,105.164 2353.81,105.832 2354.13,106.613C2354.45,107.393 2354.61,108.339 2354.61,109.45C2354.61,111.263 2354.14,112.711 2353.21,113.796C2352.28,114.881 2351.07,115.423 2349.58,115.423C2347.99,115.423 2346.7,114.818 2345.71,113.608C2344.73,112.397 2344.23,110.866 2344.23,109.014L2345.74,109.014C2345.8,110.403 2346.18,111.484 2346.86,112.258C2347.55,113.032 2348.45,113.419 2349.58,113.419C2350.63,113.419 2351.48,113.055 2352.12,112.328C2352.77,111.6 2353.09,110.681 2353.09,109.569Z" style="fill:white;fill-rule:nonzero;"/>
                <path d="M2363.28,115.423C2362.12,115.423 2361.07,114.973 2360.13,114.074C2359.2,113.174 2358.47,111.921 2357.95,110.313C2357.43,108.706 2357.16,106.904 2357.16,104.906L2357.16,104.053C2357.16,101.989 2357.42,100.13 2357.93,98.476C2358.44,96.823 2359.14,95.523 2360.05,94.577C2360.96,93.631 2361.94,93.158 2363,93.158C2364.66,93.158 2365.97,94.048 2366.94,95.827C2367.91,97.607 2368.4,100.038 2368.4,103.12L2368.4,104.45L2358.66,104.45L2358.66,104.906C2358.66,107.34 2359.11,109.368 2359.99,110.988C2360.88,112.609 2362,113.419 2363.34,113.419C2364.15,113.419 2364.86,113.188 2365.48,112.724C2366.1,112.261 2366.66,111.521 2367.16,110.502L2368.11,111.633C2367,114.16 2365.39,115.423 2363.28,115.423ZM2363,95.182C2361.87,95.182 2360.91,95.837 2360.13,97.147C2359.36,98.457 2358.88,100.216 2358.72,102.425L2366.9,102.425L2366.9,102.167C2366.85,100.104 2366.48,98.424 2365.77,97.127C2365.07,95.831 2364.14,95.182 2363,95.182Z" style="fill:white;fill-rule:nonzero;"/>
                <path d="M2377.64,95.579C2377.32,95.487 2376.98,95.44 2376.62,95.44C2375.67,95.44 2374.88,95.854 2374.23,96.681C2373.58,97.507 2373.11,98.708 2372.83,100.282L2372.83,115.026L2371.33,115.026L2371.33,93.555L2372.81,93.555L2372.83,96.968C2373.63,94.428 2374.91,93.158 2376.68,93.158C2377.1,93.158 2377.43,93.244 2377.67,93.416L2377.64,95.579Z" style="fill:white;fill-rule:nonzero;"/>
                <path d="M2384.49,111.752L2388.64,93.555L2390.19,93.555L2385.1,115.026L2383.88,115.026L2378.76,93.555L2380.31,93.555L2384.49,111.752Z" style="fill:white;fill-rule:nonzero;"/>
                <path d="M2394.35,115.026L2392.84,115.026L2392.84,93.555L2394.35,93.555L2394.35,115.026ZM2392.57,87.344C2392.57,86.894 2392.66,86.514 2392.85,86.203C2393.03,85.892 2393.29,85.737 2393.61,85.737C2393.93,85.737 2394.18,85.892 2394.37,86.203C2394.56,86.514 2394.65,86.894 2394.65,87.344C2394.65,87.794 2394.56,88.171 2394.37,88.475C2394.18,88.779 2393.93,88.931 2393.61,88.931C2393.29,88.931 2393.03,88.779 2392.85,88.475C2392.66,88.171 2392.57,87.794 2392.57,87.344Z" style="fill:white;fill-rule:nonzero;"/>
                <path d="M2403.49,113.419C2404.54,113.419 2405.42,112.953 2406.13,112.02C2406.84,111.087 2407.22,109.88 2407.28,108.398L2408.73,108.398C2408.69,109.708 2408.43,110.902 2407.95,111.98C2407.47,113.059 2406.84,113.902 2406.04,114.51C2405.25,115.119 2404.4,115.423 2403.49,115.423C2401.7,115.423 2400.28,114.444 2399.23,112.486C2398.19,110.528 2397.66,107.896 2397.66,104.588L2397.66,103.874C2397.66,101.757 2397.9,99.885 2398.37,98.258C2398.84,96.631 2399.52,95.374 2400.39,94.488C2401.27,93.601 2402.3,93.158 2403.48,93.158C2404.97,93.158 2406.2,93.859 2407.18,95.262C2408.15,96.664 2408.66,98.51 2408.73,100.798L2407.28,100.798C2407.22,99.118 2406.83,97.762 2406.13,96.73C2405.43,95.698 2404.54,95.182 2403.48,95.182C2402.11,95.182 2401.06,95.956 2400.3,97.504C2399.55,99.052 2399.18,101.222 2399.18,104.013L2399.18,104.707C2399.18,107.446 2399.55,109.583 2400.3,111.117C2401.06,112.652 2402.12,113.419 2403.49,113.419Z" style="fill:white;fill-rule:nonzero;"/>
                <path d="M2417.03,115.423C2415.87,115.423 2414.82,114.973 2413.88,114.074C2412.94,113.174 2412.22,111.921 2411.69,110.313C2411.17,108.706 2410.91,106.904 2410.91,104.906L2410.91,104.053C2410.91,101.989 2411.17,100.13 2411.68,98.476C2412.18,96.823 2412.89,95.523 2413.8,94.577C2414.71,93.631 2415.69,93.158 2416.75,93.158C2418.4,93.158 2419.72,94.048 2420.69,95.827C2421.66,97.607 2422.14,100.038 2422.14,103.12L2422.14,104.45L2412.41,104.45L2412.41,104.906C2412.41,107.34 2412.86,109.368 2413.74,110.988C2414.63,112.609 2415.74,113.419 2417.09,113.419C2417.9,113.419 2418.61,113.188 2419.22,112.724C2419.84,112.261 2420.4,111.521 2420.91,110.502L2421.85,111.633C2420.74,114.16 2419.14,115.423 2417.03,115.423ZM2416.75,95.182C2415.61,95.182 2414.66,95.837 2413.88,97.147C2413.1,98.457 2412.63,100.216 2412.46,102.425L2420.64,102.425L2420.64,102.167C2420.6,100.104 2420.23,98.424 2419.52,97.127C2418.82,95.831 2417.89,95.182 2416.75,95.182Z" style="fill:white;fill-rule:nonzero;"/>
                <path d="M2424.94,113.598C2424.94,113.135 2425.04,112.741 2425.22,112.417C2425.41,112.093 2425.68,111.931 2426.01,111.931C2426.35,111.931 2426.61,112.093 2426.81,112.417C2427,112.741 2427.1,113.135 2427.1,113.598C2427.1,114.061 2427,114.441 2426.81,114.739C2426.61,115.036 2426.35,115.185 2426.01,115.185C2425.68,115.185 2425.41,115.036 2425.22,114.739C2425.04,114.441 2424.94,114.061 2424.94,113.598Z" style="fill:white;fill-rule:nonzero;"/>
                <path d="M2430.2,87.324L2429.95,93.535L2428.94,93.535L2428.97,84.546L2430.2,84.546L2430.2,87.324ZM2433.17,87.324L2432.92,93.535L2431.9,93.535L2431.95,84.546L2433.17,84.546L2433.17,87.324Z" style="fill:white;fill-rule:nonzero;"/>
                <rect x="2304.04" y="144.735" width="7.252" height="2.602" style="fill:white;fill-rule:nonzero;"/>
                <path d="M2317.95,153.908L2317.95,137.856L2321.53,137.856C2322.76,137.856 2323.7,138.229 2324.34,138.975C2324.98,139.721 2325.3,140.814 2325.3,142.255C2325.3,143.041 2325.17,143.734 2324.91,144.333C2324.66,144.932 2324.3,145.371 2323.84,145.651C2324.37,145.856 2324.78,146.272 2325.08,146.896C2325.38,147.521 2325.53,148.285 2325.53,149.189C2325.53,150.733 2325.22,151.901 2324.59,152.695C2323.97,153.489 2323.08,153.893 2321.92,153.908L2317.95,153.908ZM2320.05,146.918L2320.05,151.251L2321.86,151.251C2322.35,151.251 2322.74,151.065 2323.01,150.694C2323.29,150.323 2323.43,149.81 2323.43,149.156C2323.43,147.686 2322.95,146.94 2321.98,146.918L2320.05,146.918ZM2320.05,144.581L2321.61,144.581C2322.67,144.552 2323.2,143.887 2323.2,142.586C2323.2,141.858 2323.07,141.334 2322.8,141.015C2322.53,140.695 2322.11,140.535 2321.53,140.535L2320.05,140.535L2320.05,144.581Z" style="fill:white;fill-rule:nonzero;"/>
                <path d="M2327.38,147.833C2327.38,146.65 2327.52,145.595 2327.81,144.669C2328.1,143.743 2328.52,143.027 2329.06,142.52C2329.6,142.012 2330.24,141.759 2330.95,141.759C2331.98,141.759 2332.81,142.251 2333.46,143.236C2334.1,144.221 2334.47,145.559 2334.54,147.249L2334.55,148.065C2334.55,149.895 2334.23,151.363 2333.58,152.469C2332.93,153.575 2332.06,154.128 2330.97,154.128C2329.88,154.128 2329,153.577 2328.35,152.475C2327.7,151.372 2327.38,149.873 2327.38,147.977L2327.38,147.833ZM2329.4,148.065C2329.4,149.197 2329.53,150.062 2329.81,150.661C2330.08,151.26 2330.46,151.56 2330.97,151.56C2331.46,151.56 2331.84,151.264 2332.12,150.672C2332.39,150.081 2332.53,149.134 2332.53,147.833C2332.53,146.724 2332.39,145.864 2332.12,145.254C2331.84,144.644 2331.45,144.339 2330.95,144.339C2330.46,144.339 2330.08,144.642 2329.81,145.248C2329.53,145.854 2329.4,146.793 2329.4,148.065Z" style="fill:white;fill-rule:nonzero;"/>
                <path d="M2343.35,148.054C2343.35,149.965 2343.09,151.455 2342.57,152.524C2342.05,153.594 2341.33,154.128 2340.4,154.128C2339.58,154.128 2338.92,153.632 2338.43,152.64L2338.34,153.908L2336.52,153.908L2336.52,136.974L2338.54,136.974L2338.54,143.049C2339.01,142.189 2339.62,141.759 2340.38,141.759C2341.31,141.759 2342.03,142.294 2342.56,143.363C2343.08,144.432 2343.35,145.937 2343.35,147.877L2343.35,148.054ZM2341.32,147.822C2341.32,146.617 2341.2,145.737 2340.96,145.182C2340.71,144.627 2340.35,144.35 2339.87,144.35C2339.23,144.35 2338.78,144.765 2338.54,145.595L2338.54,150.303C2338.79,151.141 2339.24,151.56 2339.89,151.56C2340.54,151.56 2340.97,151.053 2341.17,150.038C2341.27,149.553 2341.32,148.815 2341.32,147.822Z" style="fill:white;fill-rule:nonzero;"/>
                <path d="M2352.14,148.054C2352.14,149.965 2351.88,151.455 2351.36,152.524C2350.84,153.594 2350.12,154.128 2349.19,154.128C2348.37,154.128 2347.71,153.632 2347.22,152.64L2347.13,153.908L2345.31,153.908L2345.31,136.974L2347.33,136.974L2347.33,143.049C2347.8,142.189 2348.41,141.759 2349.17,141.759C2350.1,141.759 2350.82,142.294 2351.35,143.363C2351.87,144.432 2352.14,145.937 2352.14,147.877L2352.14,148.054ZM2350.11,147.822C2350.11,146.617 2349.99,145.737 2349.75,145.182C2349.51,144.627 2349.14,144.35 2348.66,144.35C2348.02,144.35 2347.58,144.765 2347.33,145.595L2347.33,150.303C2347.58,151.141 2348.03,151.56 2348.68,151.56C2349.33,151.56 2349.76,151.053 2349.97,150.038C2350.06,149.553 2350.11,148.815 2350.11,147.822Z" style="fill:white;fill-rule:nonzero;"/>
                <path d="M2356.24,153.908L2354.2,153.908L2354.2,141.979L2356.24,141.979L2356.24,153.908ZM2354.09,138.893C2354.09,138.415 2354.19,138.022 2354.39,137.713C2354.59,137.404 2354.87,137.25 2355.22,137.25C2355.57,137.25 2355.84,137.404 2356.05,137.713C2356.25,138.022 2356.35,138.415 2356.35,138.893C2356.35,139.378 2356.25,139.774 2356.04,140.083C2355.84,140.392 2355.56,140.546 2355.22,140.546C2354.88,140.546 2354.61,140.392 2354.4,140.083C2354.19,139.774 2354.09,139.378 2354.09,138.893Z" style="fill:white;fill-rule:nonzero;"/>
                <path d="M2362.11,154.128C2360.99,154.128 2360.09,153.592 2359.39,152.519C2358.7,151.446 2358.35,150.016 2358.35,148.23L2358.35,147.922C2358.35,146.724 2358.49,145.652 2358.79,144.708C2359.08,143.764 2359.5,143.036 2360.04,142.525C2360.58,142.014 2361.19,141.759 2361.88,141.759C2362.92,141.759 2363.74,142.273 2364.33,143.302C2364.93,144.331 2365.22,145.79 2365.22,147.679L2365.22,148.98L2360.4,148.98C2360.46,149.759 2360.66,150.384 2360.99,150.854C2361.32,151.324 2361.74,151.56 2362.24,151.56C2363.02,151.56 2363.63,151.115 2364.07,150.226L2365.06,151.979C2364.76,152.655 2364.35,153.182 2363.83,153.561C2363.31,153.939 2362.74,154.128 2362.11,154.128ZM2361.88,144.339C2361.47,144.339 2361.15,144.552 2360.9,144.978C2360.65,145.404 2360.49,146.014 2360.42,146.808L2363.23,146.808L2363.23,146.555C2363.22,145.849 2363.1,145.303 2362.87,144.917C2362.64,144.532 2362.3,144.339 2361.88,144.339Z" style="fill:white;fill-rule:nonzero;"/>
                <path d="M2379.81,153.908L2377.71,153.908L2377.71,147.029L2373.61,147.029L2373.61,153.908L2371.51,153.908L2371.51,137.856L2373.61,137.856L2373.61,144.361L2377.71,144.361L2377.71,137.856L2379.81,137.856L2379.81,153.908Z" style="fill:white;fill-rule:nonzero;"/>
                <path d="M2381.91,147.833C2381.91,146.65 2382.06,145.595 2382.35,144.669C2382.64,143.743 2383.05,143.027 2383.6,142.52C2384.14,142.012 2384.77,141.759 2385.49,141.759C2386.51,141.759 2387.35,142.251 2387.99,143.236C2388.64,144.221 2389,145.559 2389.08,147.249L2389.09,148.065C2389.09,149.895 2388.76,151.363 2388.12,152.469C2387.47,153.575 2386.6,154.128 2385.5,154.128C2384.41,154.128 2383.54,153.577 2382.89,152.475C2382.24,151.372 2381.91,149.873 2381.91,147.977L2381.91,147.833ZM2383.93,148.065C2383.93,149.197 2384.07,150.062 2384.34,150.661C2384.61,151.26 2385,151.56 2385.5,151.56C2385.99,151.56 2386.38,151.264 2386.65,150.672C2386.93,150.081 2387.07,149.134 2387.07,147.833C2387.07,146.724 2386.93,145.864 2386.65,145.254C2386.38,144.644 2385.99,144.339 2385.49,144.339C2384.99,144.339 2384.61,144.642 2384.34,145.248C2384.07,145.854 2383.93,146.793 2383.93,148.065Z" style="fill:white;fill-rule:nonzero;"/>
                <rect x="2391.16" y="136.974" width="2.031" height="16.934" style="fill:white;fill-rule:nonzero;"/>
                <path d="M2399.68,150.612C2399.68,150.222 2399.55,149.915 2399.31,149.691C2399.06,149.467 2398.67,149.267 2398.13,149.09C2396.33,148.495 2395.43,147.289 2395.43,145.474C2395.43,144.416 2395.7,143.532 2396.26,142.823C2396.82,142.114 2397.55,141.759 2398.45,141.759C2399.41,141.759 2400.18,142.115 2400.76,142.828C2401.33,143.541 2401.62,144.467 2401.62,145.606L2399.6,145.606C2399.6,145.151 2399.51,144.774 2399.32,144.476C2399.13,144.179 2398.84,144.03 2398.44,144.03C2398.1,144.03 2397.84,144.151 2397.65,144.394C2397.47,144.636 2397.37,144.945 2397.37,145.32C2397.37,145.673 2397.48,145.957 2397.69,146.174C2397.9,146.391 2398.26,146.578 2398.77,146.736C2399.27,146.894 2399.7,147.073 2400.04,147.271C2401.11,147.888 2401.64,148.958 2401.64,150.479C2401.64,151.567 2401.35,152.447 2400.75,153.12C2400.16,153.792 2399.4,154.128 2398.46,154.128C2397.82,154.128 2397.26,153.95 2396.77,153.594C2396.27,153.237 2395.89,152.748 2395.61,152.127C2395.33,151.506 2395.19,150.836 2395.19,150.115L2397.11,150.115C2397.12,150.681 2397.26,151.115 2397.51,151.416C2397.75,151.718 2398.08,151.868 2398.5,151.868C2398.89,151.868 2399.18,151.753 2399.38,151.521C2399.58,151.29 2399.68,150.986 2399.68,150.612Z" style="fill:white;fill-rule:nonzero;"/>
                <path d="M2406.81,151.56C2407.19,151.56 2407.49,151.398 2407.72,151.075C2407.96,150.751 2408.08,150.321 2408.09,149.785L2409.99,149.785C2409.98,150.593 2409.84,151.334 2409.57,152.006C2409.29,152.679 2408.91,153.2 2408.44,153.572C2407.96,153.943 2407.43,154.128 2406.85,154.128C2405.77,154.128 2404.91,153.586 2404.29,152.502C2403.66,151.418 2403.35,149.921 2403.35,148.01L2403.35,147.8C2403.35,145.963 2403.66,144.497 2404.28,143.402C2404.9,142.306 2405.75,141.759 2406.84,141.759C2407.78,141.759 2408.54,142.183 2409.12,143.032C2409.69,143.881 2409.98,145.011 2409.99,146.422L2408.09,146.422C2408.08,145.805 2407.96,145.303 2407.72,144.917C2407.49,144.532 2407.18,144.339 2406.8,144.339C2406.33,144.339 2405.97,144.609 2405.73,145.149C2405.49,145.689 2405.37,146.566 2405.37,147.778L2405.37,148.109C2405.37,149.336 2405.49,150.218 2405.73,150.755C2405.97,151.291 2406.33,151.56 2406.81,151.56Z" style="fill:white;fill-rule:nonzero;"/>
                <rect x="2411.96" y="136.974" width="2.031" height="16.934" style="fill:white;fill-rule:nonzero;"/>
                <path d="M2420.77,153.908C2420.68,153.621 2420.61,153.265 2420.57,152.838C2420.08,153.698 2419.44,154.128 2418.66,154.128C2417.91,154.128 2417.3,153.79 2416.81,153.114C2416.32,152.438 2416.08,151.585 2416.08,150.556C2416.08,149.292 2416.38,148.322 2416.97,147.646C2417.57,146.97 2418.43,146.628 2419.55,146.621L2420.48,146.621L2420.48,145.937C2420.48,145.386 2420.39,144.945 2420.21,144.614C2420.03,144.283 2419.75,144.118 2419.36,144.118C2419.02,144.118 2418.75,144.247 2418.56,144.504C2418.37,144.761 2418.27,145.114 2418.27,145.562L2416.25,145.562C2416.25,144.871 2416.38,144.232 2416.65,143.644C2416.92,143.056 2417.3,142.595 2417.8,142.26C2418.3,141.926 2418.85,141.759 2419.47,141.759C2420.4,141.759 2421.14,142.128 2421.69,142.867C2422.24,143.605 2422.51,144.644 2422.51,145.981L2422.51,151.152C2422.52,152.284 2422.62,153.14 2422.81,153.72L2422.81,153.908L2420.77,153.908ZM2419.1,151.692C2419.39,151.692 2419.67,151.587 2419.92,151.378C2420.17,151.168 2420.36,150.887 2420.48,150.534L2420.48,148.484L2419.73,148.484C2418.71,148.484 2418.17,149.035 2418.11,150.137L2418.1,150.325C2418.1,150.722 2418.19,151.049 2418.37,151.306C2418.55,151.563 2418.79,151.692 2419.1,151.692Z" style="fill:white;fill-rule:nonzero;"/>
                <path d="M2431.37,149.575L2432.37,141.979L2434.32,141.979L2432.39,153.908L2430.7,153.908L2429.26,146.4L2427.82,153.908L2426.14,153.908L2424.2,141.979L2426.16,141.979L2427.14,149.564L2428.53,141.979L2429.99,141.979L2431.37,149.575Z" style="fill:white;fill-rule:nonzero;"/>
            </g>
        </g>
    </g>
</svg>
