<?xml version="1.0" encoding="UTF-8" standalone="no"?>
<!DOCTYPE svg PUBLIC "-//W3C//DTD SVG 1.1//EN" "http://www.w3.org/Graphics/SVG/1.1/DTD/svg11.dtd">
<svg width="100%" height="100%" viewBox="0 0 86 59" version="1.1" xmlns="http://www.w3.org/2000/svg" xmlns:xlink="http://www.w3.org/1999/xlink" xml:space="preserve" xmlns:serif="http://www.serif.com/" style="fill-rule:evenodd;clip-rule:evenodd;stroke-linejoin:round;stroke-miterlimit:2;">
    <g transform="matrix(1,0,0,1,-6418.06,-3934.79)">
        <g transform="matrix(0.975,0,0,2.72136,5445.07,3556.23)">
            <g transform="matrix(1.02564,0,0,0.367463,-9993.6,0.119853)">
                <path d="M10797.5,430.165L10797.5,425.732L10718.5,425.732L10718.5,430.154L10722.3,430.154C10722.4,430.154 10722.4,430.159 10722.5,430.168C10722.9,430.237 10723.2,430.576 10723.2,430.984L10723.2,435.731C10723.2,436.189 10722.8,436.56 10722.3,436.56C10721.9,436.56 10721.5,436.189 10721.5,435.731L10721.5,431.811L10717.7,431.811C10717.7,431.816 10717.7,431.818 10717.6,431.818C10717.6,431.818 10717.5,431.811 10717.4,431.797C10717,431.726 10716.8,431.388 10716.8,430.983C10716.8,430.972 10716.8,430.961 10716.8,430.95L10716.8,424.864C10716.8,424.384 10717.1,423.996 10717.6,423.996L10728.6,423.996L10739.2,399.189C10739.4,398.766 10739.8,398.557 10740.3,398.714L10750.3,402.356C10750.4,402.313 10750.4,402.273 10750.4,402.237L10760.9,394.282C10761.5,393.813 10762.2,393.485 10763,393.321L10777.1,390.265C10777.4,390.205 10777.7,390.112 10777.9,389.986L10801.3,378.319C10801.7,378.105 10802.3,378.28 10802.5,378.708C10802.7,379.137 10802.5,379.659 10802.1,379.873L10778.7,391.54C10778.3,391.73 10777.9,391.872 10777.5,391.962L10763.3,395.018C10762.8,395.128 10762.4,395.348 10761.9,395.664L10752.2,403.053L10763.5,407.146C10765.7,405.597 10768.4,403.679 10771.6,401.044C10771.9,400.737 10772.5,400.787 10772.8,401.155C10773.1,401.523 10773,402.071 10772.7,402.378C10767.5,406.717 10763.5,409.111 10761.1,411.117C10759.9,412.162 10759.1,413.053 10758.9,414.147C10758.8,414.835 10758.9,415.59 10759.2,416.496C10759.7,417.249 10760.6,417.977 10762.1,418.127C10763,418.222 10764,418 10765.3,417.552C10767.3,416.809 10769.9,415.449 10773.3,413.659C10773.3,413.65 10773.3,413.641 10773.3,413.633C10773.3,413.633 10774.2,413.143 10777.2,413.554C10779.1,413.83 10780.5,414.874 10785.2,415.352C10785.3,415.358 10785.3,415.371 10785.4,415.391C10785.4,415.391 10785.5,415.435 10785.9,415.436C10786,415.402 10786.1,415.395 10786.2,415.417C10787.2,415.328 10788.8,414.866 10791.1,413.033L10791.1,413.031C10791.6,412.596 10792.1,412.085 10792.5,411.515C10795.7,406.758 10798.5,401.771 10801.2,399.986C10801.6,399.722 10802.1,399.832 10802.4,400.232C10802.7,400.631 10802.6,401.17 10802.2,401.435C10801.2,402.087 10800.2,403.224 10799.2,404.618C10797.5,406.843 10795.8,409.711 10793.9,412.488L10793.9,412.49C10793.4,413.199 10792.8,413.834 10792.2,414.376C10789.8,416.3 10787.9,416.945 10786.7,417.12L10783.8,423.996L10798.4,423.996C10798.9,423.996 10799.3,424.384 10799.3,424.864L10799.3,430.95C10799.3,431.023 10799.3,431.094 10799.2,431.162C10799.2,431.539 10798.8,431.822 10798.4,431.822L10794.5,431.822L10794.5,435.742C10794.5,436.199 10794.1,436.571 10793.7,436.571C10793.2,436.571 10792.8,436.199 10792.8,435.742L10792.8,430.995C10792.8,430.569 10793.2,430.217 10793.6,430.171C10793.6,430.167 10793.6,430.165 10793.7,430.165L10797.5,430.165ZM10774,415.231L10774,415.219L10773.7,415.293C10773.8,415.293 10773.9,415.272 10774,415.231ZM10730.5,423.996L10781.9,423.996L10784.8,417.057C10780.3,416.566 10778.8,415.547 10776.9,415.273C10775.1,415.015 10774.2,415.193 10774,415.226C10770.6,417.049 10768,418.428 10765.8,419.186C10764.3,419.742 10763,419.971 10761.9,419.854C10759.7,419.627 10758.3,418.435 10757.7,417.295C10757.6,417.254 10757.6,417.211 10757.6,417.167C10757.1,415.873 10757,414.793 10757.2,413.817C10757.5,412.389 10758.4,411.153 10760,409.789C10760.6,409.343 10761.2,408.878 10761.8,408.377L10740.4,400.626L10730.5,423.996Z" style="fill:white;"/>
            </g>
        </g>
    </g>
</svg>
