<?xml version="1.0" encoding="UTF-8" standalone="no"?>
<!DOCTYPE svg PUBLIC "-//W3C//DTD SVG 1.1//EN" "http://www.w3.org/Graphics/SVG/1.1/DTD/svg11.dtd">
<svg width="100%" height="100%" viewBox="0 0 57 47" version="1.1" xmlns="http://www.w3.org/2000/svg" xmlns:xlink="http://www.w3.org/1999/xlink" xml:space="preserve" xmlns:serif="http://www.serif.com/" style="fill-rule:evenodd;clip-rule:evenodd;stroke-linejoin:round;stroke-miterlimit:2;">
    <g transform="matrix(1,0,0,1,-2233.11,-356.126)">
        <g transform="matrix(0.975,0,0,2.88139,1246.67,0)">
            <g transform="matrix(1.53588,0,0,0.51971,1011.74,122.996)">
                <path d="M37.717,1.204C37.547,1.121 37.341,1.142 37.191,1.259L36.626,1.704C33.648,4.059 28.667,8 18.5,8L4.631,8C3.18,8 2,9.2 2,10.674L2,21.388C2,22.828 3.18,24 4.631,24L8.025,24C8.113,25.125 8.527,27.794 10.479,29.761C11.953,31.247 13.979,32 16.5,32C16.776,32 17,31.776 17,31.5C17,31.224 16.776,31 16.5,31C14.258,31 12.474,30.348 11.194,29.062C9.527,27.386 9.127,25.038 9.031,24L12.026,24C12.111,24.682 12.386,25.881 13.3,26.802C14.089,27.597 15.166,28 16.5,28C16.776,28 17,27.776 17,27.5C17,27.224 16.776,27 16.5,27C15.445,27 14.609,26.698 14.016,26.104C13.359,25.445 13.122,24.558 13.035,24L18.431,24C28.647,24 33.668,27.963 36.668,30.331L37.19,30.742C37.279,30.812 37.388,30.847 37.497,30.847C37.572,30.847 37.647,30.83 37.716,30.796C37.888,30.712 37.997,30.538 37.997,30.347L37.997,1.653C37.998,1.462 37.889,1.288 37.717,1.204ZM3,21.388L3,10.674C3,9.751 3.731,9 4.631,9L8,9L8,23L4.631,23C3.716,23 3,22.292 3,21.388ZM37,29.317C33.866,26.851 28.672,23 18.432,23L12.635,23C12.588,22.985 12.54,22.97 12.487,22.969L12.485,22.969C12.431,22.969 12.38,22.984 12.331,23L9,23L9,9L18.5,9C28.737,9 33.894,5.136 37,2.684L37,29.317Z" style="fill:white;fill-rule:nonzero;"/>
                <path d="M0.5,21.857C0.776,21.857 1,21.633 1,21.357L1,10.643C1,10.367 0.776,10.143 0.5,10.143C0.224,10.143 0,10.366 0,10.643L0,21.357C0,21.633 0.224,21.857 0.5,21.857Z" style="fill:white;fill-rule:nonzero;"/>
            </g>
        </g>
    </g>
</svg>
