<?xml version="1.0" encoding="UTF-8" standalone="no"?>
<!DOCTYPE svg PUBLIC "-//W3C//DTD SVG 1.1//EN" "http://www.w3.org/Graphics/SVG/1.1/DTD/svg11.dtd">
<svg width="100%" height="100%" viewBox="0 0 29 40" version="1.1" xmlns="http://www.w3.org/2000/svg" xmlns:xlink="http://www.w3.org/1999/xlink" xml:space="preserve" xmlns:serif="http://www.serif.com/" style="fill-rule:evenodd;clip-rule:evenodd;stroke-linejoin:round;stroke-miterlimit:2;">
    <g transform="matrix(1,0,0,1,-565.645,-425.214)">
        <g transform="matrix(1.38658,0,0,3.56384,5.76126,0)">
            <g transform="matrix(1.1549,0,0,0.449334,-692.957,-1100.92)">
                <path d="M966.832,2727.53C967.162,2726.59 967.351,2725.54 967.351,2724.5C967.351,2719.58 963.389,2715.65 958.5,2715.65C953.612,2715.65 949.649,2719.58 949.649,2724.5C949.649,2725.56 949.843,2726.62 950.182,2727.56C952.135,2734.08 958.25,2740.25 958.25,2740.25C958.316,2740.32 958.406,2740.35 958.5,2740.35C958.594,2740.35 958.683,2740.32 958.749,2740.25C958.749,2740.25 964.89,2734.05 966.833,2727.52L966.832,2727.53ZM966.166,2727.3C966.164,2727.3 966.162,2727.31 966.161,2727.32C964.494,2732.93 959.655,2738.27 958.5,2739.49C957.348,2738.28 952.526,2732.94 950.85,2727.35C950.848,2727.34 950.846,2727.33 950.844,2727.33C950.531,2726.46 950.351,2725.47 950.351,2724.5C950.351,2719.97 954,2716.35 958.5,2716.35C963,2716.35 966.649,2719.97 966.649,2724.5C966.649,2725.46 966.473,2726.44 966.166,2727.3ZM958.5,2720.65C956.373,2720.65 954.649,2722.37 954.649,2724.5C954.649,2726.63 956.373,2728.35 958.5,2728.35C960.627,2728.35 962.352,2726.63 962.352,2724.5C962.352,2722.37 960.627,2720.65 958.5,2720.65ZM958.5,2721.35C960.239,2721.35 961.649,2722.76 961.649,2724.5C961.649,2726.24 960.239,2727.65 958.5,2727.65C956.761,2727.65 955.352,2726.24 955.352,2724.5C955.352,2722.76 956.761,2721.35 958.5,2721.35Z" style="fill:rgb(173,198,235);"/>
            </g>
        </g>
    </g>
</svg>
