<?xml version="1.0" encoding="UTF-8" standalone="no"?>
<!DOCTYPE svg PUBLIC "-//W3C//DTD SVG 1.1//EN" "http://www.w3.org/Graphics/SVG/1.1/DTD/svg11.dtd">
<svg width="100%" height="100%" viewBox="0 0 50 46" version="1.1" xmlns="http://www.w3.org/2000/svg" xmlns:xlink="http://www.w3.org/1999/xlink" xml:space="preserve" xmlns:serif="http://www.serif.com/" style="fill-rule:evenodd;clip-rule:evenodd;stroke-linejoin:round;stroke-miterlimit:2;">
    <g transform="matrix(1,0,0,1,-859.979,-422.745)">
        <g transform="matrix(0.975,0,0,2.66628,246.947,16.5921)">
            <g transform="matrix(0.776155,0,0,0.283822,628.751,152.329)">
                <path d="M25.579,60.189C16.577,60.342 7.98,58.816 3.095,56.34C3.095,56.339 3.094,56.339 3.094,56.339C1.373,55.462 0.233,53.753 0.083,51.827L0.083,51.826C-0.084,49.686 -0.015,47.161 0.437,44.838C0.437,44.837 0.438,44.837 0.438,44.836C0.928,42.346 2.707,40.306 5.108,39.483C7.437,38.683 10.625,37.888 15.025,35.217L15.025,35.216C16.18,34.516 17.66,34.667 18.65,35.585C18.651,35.586 18.652,35.587 18.653,35.588C22.308,39.014 28.839,39.078 32.492,35.608C32.493,35.607 32.494,35.606 32.495,35.605C33.485,34.674 34.973,34.518 36.135,35.222L36.136,35.222C40.528,37.89 43.712,38.684 46.039,39.484C48.439,40.307 50.218,42.346 50.709,44.836L50.709,44.838C51.161,47.159 51.231,49.681 51.07,51.82L51.07,51.822C50.92,53.753 49.776,55.466 48.052,56.345C48.051,56.345 48.049,56.346 48.049,56.346C43.164,58.817 34.572,60.34 25.579,60.189ZM27.067,58.416L27.076,58.416C35.196,58.281 42.808,57.007 47.247,54.764L47.247,54.763C48.42,54.165 49.198,52.999 49.301,51.685C49.45,49.691 49.389,47.341 48.967,45.179C48.6,43.31 47.264,41.779 45.462,41.162L45.462,41.161C43.053,40.333 39.762,39.5 35.216,36.739L35.215,36.739C34.735,36.448 34.12,36.513 33.712,36.896L33.711,36.896C29.417,40.976 21.739,40.912 17.443,36.886C17.033,36.506 16.422,36.444 15.946,36.733C11.391,39.499 8.095,40.333 5.684,41.161C3.883,41.778 2.547,43.309 2.178,45.177C1.758,47.342 1.697,49.695 1.851,51.689C1.953,52.998 2.728,54.16 3.899,54.758C8.335,57.006 15.951,58.282 24.07,58.416C24.082,58.416 27.059,58.414 27.067,58.416ZM32.796,2.004L32.44,1.774C30.605,0.641 28.28,0 25.398,0C21.412,0 18.606,1.306 16.669,3.345C13.834,6.328 12.879,10.966 12.954,15.589L12.954,15.591C12.957,24.625 17.505,31.651 25.677,31.651C33.605,31.651 38.011,25.003 38.017,15.958L38.017,15.952C38.284,10.534 37.102,5.918 34.127,3.076C33.719,2.687 33.275,2.328 32.796,2.004ZM52.044,27.654L52.052,27.66C52.09,27.694 52.126,27.687 52.126,27.687C52.161,27.687 52.194,27.672 52.216,27.644L63.318,13.811C63.628,13.426 64.195,13.364 64.579,13.673C64.579,13.673 64.58,13.673 64.58,13.674C64.972,13.985 65.034,14.55 64.723,14.937L52.883,29.679C52.719,29.882 52.482,30.003 52.217,30.014C51.96,30.023 51.703,29.919 51.531,29.733L46.188,24.057C45.849,23.696 45.867,23.127 46.231,22.788C46.232,22.788 46.232,22.788 46.232,22.787C46.589,22.448 47.164,22.466 47.502,22.826L52.044,27.654ZM28.068,2.004C27.242,1.84 26.336,1.756 25.329,1.774C21.976,1.789 19.591,2.845 17.955,4.566C15.416,7.239 14.66,11.425 14.729,15.567L14.729,15.582C14.729,23.521 18.496,29.876 25.677,29.876C32.621,29.876 36.242,23.867 36.242,15.941C36.242,15.927 36.243,15.912 36.243,15.897C36.486,11.052 35.556,6.896 32.901,4.36C31.671,3.185 30.072,2.375 28.068,2.004Z" style="fill:rgb(171,193,237);"/>
            </g>
        </g>
    </g>
</svg>
