<?xml version="1.0" encoding="UTF-8" standalone="no"?>
<!DOCTYPE svg PUBLIC "-//W3C//DTD SVG 1.1//EN" "http://www.w3.org/Graphics/SVG/1.1/DTD/svg11.dtd">
<svg width="100%" height="100%" viewBox="0 0 41 41" version="1.1" xmlns="http://www.w3.org/2000/svg" xmlns:xlink="http://www.w3.org/1999/xlink" xml:space="preserve" xmlns:serif="http://www.serif.com/" style="fill-rule:evenodd;clip-rule:evenodd;stroke-linejoin:round;stroke-miterlimit:2;">
    <g transform="matrix(1,0,0,1,-290.248,-427.128)">
        <g transform="matrix(1.38658,0,0,3.56384,5.76126,0)">
            <g transform="matrix(0.0685719,0,0,0.0266792,202.361,118.757)">
                <path d="M80.724,378.159C81.004,377.124 80.602,375.913 80.213,374.675C79.55,372.564 78.501,370.459 77.488,368.682C76.838,367.596 76.133,366.544 75.377,365.528L75.257,365.367L75.146,365.2C52.866,331.411 40.987,291.814 40.988,251.341C40.638,135.267 136.806,40.988 255.83,40.988C359.612,40.988 446.189,112.949 466.437,208.386C469.473,222.552 471.007,237 471.012,251.489C471.012,367.749 378.451,463.432 259.41,463.432C240.499,463.432 214.97,458.698 201.05,454.802C187.298,450.953 173.567,445.849 170.034,444.485C167.286,443.428 164.362,442.885 161.408,442.882C158.203,442.869 155.025,443.507 152.074,444.757L151.899,444.831C151.899,444.831 84.071,469.31 84.119,469.29C82.031,470.171 79.823,470.738 77.569,470.974L77.195,471.013L76.819,471.012C67.725,470.984 60.257,463.494 60.257,454.4C60.257,454.319 60.258,454.238 60.259,454.158L60.262,453.947L60.278,453.737C60.396,452.161 60.677,450.601 61.117,449.084L80.724,378.159ZM74.284,454.54C74.351,455.784 75.317,456.807 76.571,456.966C77.315,456.85 78.042,456.64 78.735,456.341L78.93,456.257C78.93,456.257 146.805,431.761 146.717,431.797C151.38,429.84 156.39,428.84 161.448,428.858C166.104,428.865 170.722,429.726 175.073,431.398C178.471,432.71 191.642,437.607 204.83,441.298C217.85,444.942 241.721,449.408 259.41,449.408C370.568,449.408 456.988,360.051 456.988,251.491C456.984,237.988 455.554,224.519 452.722,211.309C433.806,122.13 352.805,55.012 255.83,55.012C144.661,55.012 54.674,142.907 55.012,251.335C55.01,289.004 66.049,325.864 86.706,357.264C87.728,358.643 88.68,360.072 89.594,361.602L89.627,361.66C93.006,367.571 95.857,375.948 94.25,381.861L74.613,452.894L74.597,452.949C74.444,453.468 74.339,454.001 74.284,454.54Z" style="fill:rgb(166,198,242);"/>
            </g>
        </g>
    </g>
</svg>
